<svg xmlns="http://www.w3.org/2000/svg" xmlns:xlink="http://www.w3.org/1999/xlink" width="16" height="16" viewBox="0 0 16 16"><defs><clipPath id="b"><rect width="16" height="16"/></clipPath></defs><g id="a" clip-path="url(#b)"><g transform="translate(-498.213 -423.176)"><g transform="translate(506.213 424.197)"><path d="M1826.115,708.046l3.207,5.62a.523.523,0,0,0,.452.262h2.237a.61.61,0,0,0,.524-.339h0l1.057-1.9a.515.515,0,0,0-.13-.655l-.233-.186a.52.52,0,0,0-.78.154h0a.521.521,0,0,1-.907,0l-4.967-8.7a.518.518,0,0,1,0-.512l1.3-1.876a.516.516,0,0,0-.122-.656l-.233-.191a.521.521,0,0,0-.734.072.506.506,0,0,0-.049.071l-.622,1.09a.517.517,0,0,1-.452.263v7.22A.515.515,0,0,1,1826.115,708.046Z" transform="translate(-1825.663 -698.95)" fill="#fff"/></g><g transform="translate(498.213 424.197)"><path d="M1833.21,708.046l-3.207,5.62a.523.523,0,0,1-.452.262h-2.237a.61.61,0,0,1-.524-.339h0l-1.057-1.9a.516.516,0,0,1,.13-.655l.233-.186a.521.521,0,0,1,.732.082.5.5,0,0,1,.048.072h0a.521.521,0,0,0,.907,0l4.967-8.7a.519.519,0,0,0,0-.512l-1.3-1.876a.516.516,0,0,1,.122-.656l.233-.191a.521.521,0,0,1,.734.072.467.467,0,0,1,.049.071l.622,1.09a.517.517,0,0,0,.452.263v7.22A.515.515,0,0,0,1833.21,708.046Z" transform="translate(-1825.663 -698.95)" fill="#fff"/></g></g></g></svg>