<svg xmlns="http://www.w3.org/2000/svg" xmlns:xlink="http://www.w3.org/1999/xlink" width="89" height="101" viewBox="0 0 89 101"><defs><clipPath id="a"><rect width="89" height="101" transform="translate(1368 230)" fill="#fff" stroke="#707070" stroke-width="1"/></clipPath></defs><g transform="translate(-1368 -230)" clip-path="url(#a)"><g transform="translate(1178.476 -162.404)" opacity="0.298"><path d="M269.783,484.814a4.541,4.541,0,0,1-1.6-.293L227.737,470.3a6.391,6.391,0,0,1-7.975-9.888l1.757-1.76-24.258-10.522a2.048,2.048,0,0,1-1.118-1.112,2.081,2.081,0,0,1,1.87-2.811,2.09,2.09,0,0,1,.831.174L224.45,455.54l8.907-8.907-28.423-28.426a2.008,2.008,0,0,1,1.42-3.43,2,2,0,0,1,1.42.587L236.2,443.79l8.907-8.9-11.155-25.6a2.02,2.02,0,0,1-.041-1.554,2.06,2.06,0,0,1,1.124-1.118,2.348,2.348,0,0,1,.944-.195,2.2,2.2,0,0,1,1.835.956l10.6,24.389,1.754-1.754a6.4,6.4,0,0,1,9,0,6.466,6.466,0,0,1,.892,7.978l14.227,40.457a4.933,4.933,0,0,1-1.13,4.957A4.811,4.811,0,0,1,269.783,484.814Zm-.383-3.979.319.081c.058,0,.235,0,.5-.264a.814.814,0,0,0,.174-.836l-6.566-18.552-3.363,16.359Zm-12.737-4.516,4.612-22.35-3.041-8.573-6.07,29.335Zm-8.3-2.89,6.064-29.494-6,6-4.559,21.906Zm-8.486-2.9,3.171-15.406-12.157,12.16Zm14.7-38.253a2.321,2.321,0,0,0-1.655.668l-30.406,30.4a2.343,2.343,0,0,0,3.314,3.314l30.406-30.4a2.376,2.376,0,0,0,0-3.314A2.323,2.323,0,0,0,254.571,432.278Z" transform="translate(12.487 15.265)" fill="#fff"/><path d="M203.952,425.616a1.876,1.876,0,0,1-1.7-.947l-3.517-4.873-5.942-.174a2.081,2.081,0,0,1-1.734-1.1,2.192,2.192,0,0,1,.093-1.954l3.732-5-2-5.84a1.952,1.952,0,0,1,.476-2.059,2,2,0,0,1,1.446-.558,2.55,2.55,0,0,1,.508.052l5.942,2.036,4.876-3.659a1.624,1.624,0,0,1,1.133-.389,2.14,2.14,0,0,1,.938.218,2.083,2.083,0,0,1,1.112,1.763l-.087,6.206,4.966,3.569a2.281,2.281,0,0,1,.793,2.044,1.657,1.657,0,0,1-.5,1.069,1.523,1.523,0,0,1-1.051.526l-5.59,1.789-1.83,5.843a2.435,2.435,0,0,1-1.65,1.4Zm-4.231-9.88a1.855,1.855,0,0,1,1.763.923l1.76,2.454.912-2.985c-.035-.282.256-.572.488-.8a1.512,1.512,0,0,1,1.045-.52l2.75-.865-2.573-1.838a2.371,2.371,0,0,1-.813-1.7l.061-3.078-2.471,1.87a1.8,1.8,0,0,1-1.986.264l-2.805-.929.97,2.916a1.77,1.77,0,0,1-.386,1.966l-1.792,2.381Z" transform="translate(2.706 5.234)" fill="#fff"/><path d="M212.506,419.236a2,2,0,0,1-1.577-1.58l-1.092-4.1-3.979-1.437a2.413,2.413,0,0,1-1.365-1.641,2.142,2.142,0,0,1,1-2.016l3.473-2.32.084-4.327a1.8,1.8,0,0,1,1.313-1.818,3.675,3.675,0,0,1,.694-.07,1.837,1.837,0,0,1,1.356.485l3.328,2.654,4.066-1.185a1.246,1.246,0,0,1,.575-.11,2.117,2.117,0,0,1,1.446.6,2.149,2.149,0,0,1,.511,1.954l-1.742,4.391,2.445,3.462a1.91,1.91,0,0,1,.157,2.059l-.058.116-.279.276a2.015,2.015,0,0,1-1.519.619l-4.263-.168-2.538,3.386a2.25,2.25,0,0,1-1.638.819Zm-.386-9.128a1.738,1.738,0,0,1,1.356,1.446l.3,1.121.755-.993a2.161,2.161,0,0,1,1.681-.79l1.3.044-.677-1a1.744,1.744,0,0,1-.241-1.954l.343-.967-1.133.351a1.5,1.5,0,0,1-.665.134,1.812,1.812,0,0,1-1.284-.526l-.886-.735-.041,1.208a1.825,1.825,0,0,1-1.014,1.641l-.938.581Z" transform="translate(28.65 2.9)" fill="#fff"/><path d="M202.715,434.143a2.521,2.521,0,0,1-1.124-.285l-3.578-2.521-3.982,1.44a1.42,1.42,0,0,1-.624.125,2.114,2.114,0,0,1-1.449-.6,2.14,2.14,0,0,1-.505-1.952l1.2-4.138-2.715-3.4a1.941,1.941,0,0,1-.282-2.187,2.079,2.079,0,0,1,1.763-1.1l4.31-.087,2.373-3.561a1.864,1.864,0,0,1,1.62-.947l.346.035a2,2,0,0,1,1.67,1.49l1.409,3.857,4.153,1.1a2,2,0,0,1,1.528,1.568,2.532,2.532,0,0,1-.967,2.233l-3.473,2.614.168,4.231a2.279,2.279,0,0,1-.61,1.545l-.1.1-.311.247a1.818,1.818,0,0,1-.822.189Zm-4.437-7.234a2.549,2.549,0,0,1,1.162.351l1.086.735-.041-1.281a2.328,2.328,0,0,1,.706-1.632l.979-.741L201,424.028a2.676,2.676,0,0,1-1.362-1.263l-.465-1.217-.619,1a1.813,1.813,0,0,1-1.632.95l-1.182.038.787.947a2.4,2.4,0,0,1,.363,1.8l-.363,1.179,1.127-.43A1.434,1.434,0,0,1,198.277,426.909Z" transform="translate(0 31.479)" fill="#fff"/><path d="M199.075,435.1a6.093,6.093,0,0,1-4.345-1.792,5.965,5.965,0,0,1-.093-8.529,6.119,6.119,0,0,1,4.324-1.748,6.074,6.074,0,0,1,4.3,10.371,5.866,5.866,0,0,1-4.185,1.7Zm-.221-8.079a1.974,1.974,0,1,0,1.94,1.963,1.9,1.9,0,0,0-.56-1.362A1.952,1.952,0,0,0,198.854,427.018Z" transform="translate(6.555 46.895)" fill="#fff"/><path d="M196.708,421.933a6.109,6.109,0,0,1-4.353-1.827,5.968,5.968,0,0,1-.1-8.529,5.854,5.854,0,0,1,4.185-1.7,6.1,6.1,0,0,1,4.348,1.792,5.968,5.968,0,0,1,.093,8.529,5.869,5.869,0,0,1-4.173,1.734Zm-.136-8.021a1.952,1.952,0,0,0-1.377.6,2.048,2.048,0,0,0,0,2.753,1.947,1.947,0,1,0,1.377-3.354Z" transform="translate(2.031 21.855)" fill="#fff"/><path d="M205.366,411.611a6.561,6.561,0,0,1-4.684-1.92,6.716,6.716,0,0,1,0-9.372,6.679,6.679,0,0,1,9.372,0,6.713,6.713,0,0,1,0,9.372,6.554,6.554,0,0,1-4.681,1.92Zm0-9.186a2.521,2.521,0,1,0,1.841.738A2.612,2.612,0,0,0,205.366,402.425Z" transform="translate(17.764 0)" fill="#fff"/><path d="M212.8,423.882a5.548,5.548,0,0,1-3.941-1.641,5.644,5.644,0,0,1,0-7.876,5.57,5.57,0,1,1,3.941,9.517Zm.093-7.225a1.552,1.552,0,1,0,1.1,2.649,1.531,1.531,0,0,0,.459-1.095,1.562,1.562,0,0,0-1.557-1.554Z" transform="translate(33.923 27.275)" fill="#fff"/><path d="M204.07,425.929a6.065,6.065,0,0,1-4.266-1.76,6,6,0,0,1-1.792-4.2,5.742,5.742,0,0,1,5.779-5.808,6.06,6.06,0,0,1,4.263,1.757,5.839,5.839,0,0,1,.093,8.346,5.72,5.72,0,0,1-4.077,1.664Zm-.232-7.789a1.8,1.8,0,1,0,1.284.529A1.8,1.8,0,0,0,203.838,418.14Z" transform="translate(16.31 30.011)" fill="#fff"/><path d="M219.941,416.734a6.078,6.078,0,1,1,4.313-1.78A6.059,6.059,0,0,1,219.941,416.734Zm0-8a1.813,1.813,0,0,0-1.905,1.9,1.948,1.948,0,0,0,.529,1.379,1.973,1.973,0,0,0,1.388.561,1.915,1.915,0,0,0,1.365-.561,1.956,1.956,0,0,0,0-2.756A1.935,1.935,0,0,0,219.941,408.739Z" transform="translate(46.464 11.712)" fill="#fff"/></g></g></svg>