<svg xmlns="http://www.w3.org/2000/svg" width="143.16" height="102.069" viewBox="0 0 143.16 102.069"><g transform="translate(3 3)"><g transform="translate(17.699 14.045)"><path d="M15.847-3A18.847,18.847,0,1,1-3,15.847,18.868,18.868,0,0,1,15.847-3Zm0,31.693A12.847,12.847,0,1,0,3,15.847,12.861,12.861,0,0,0,15.847,28.693Z" transform="translate(12.604)" fill="#e5eff2"/><path d="M339.126,474a53.945,53.945,0,0,1-30.117-9.134,3,3,0,0,1-1.325-2.675,31.5,31.5,0,0,1,62.885,0,3,3,0,0,1-1.326,2.673A53.946,53.946,0,0,1,339.126,474Zm-25.291-13.162a48.234,48.234,0,0,0,50.583,0,25.5,25.5,0,0,0-50.583,0Z" transform="translate(-310.678 -403.921)" fill="#e5eff2"/></g><path d="M28.692,3H0A3,3,0,0,1-3,0,3,3,0,0,1,0-3H28.692a3,3,0,0,1,3,3A3,3,0,0,1,28.692,3Z" transform="translate(89.117 26.17)" fill="#e5eff2"/><path d="M28.692,3H0A3,3,0,0,1-3,0,3,3,0,0,1,0-3H28.692a3,3,0,0,1,3,3A3,3,0,0,1,28.692,3Z" transform="translate(89.117 47.516)" fill="#e5eff2"/><path d="M28.692,3H0A3,3,0,0,1-3,0,3,3,0,0,1,0-3H28.692a3,3,0,0,1,3,3A3,3,0,0,1,28.692,3Z" transform="translate(89.117 68.861)" fill="#e5eff2"/><path d="M16-3H121.16a19.022,19.022,0,0,1,19,19V80.069a19.022,19.022,0,0,1-19,19H16a19.022,19.022,0,0,1-19-19V16A19.022,19.022,0,0,1,16-3ZM121.16,93.069a13.015,13.015,0,0,0,13-13V16a13.015,13.015,0,0,0-13-13H16A13.015,13.015,0,0,0,3,16V80.069a13.015,13.015,0,0,0,13,13Z" transform="translate(0 0)" fill="#e5eff2"/></g></svg>