<svg xmlns="http://www.w3.org/2000/svg" width="148.902" height="110.787" viewBox="0 0 148.902 110.787"><g transform="translate(3 3)"><path d="M405.668,523.614H361.95A12.266,12.266,0,0,1,349.7,511.361v-73.2A12.27,12.27,0,0,1,361.95,425.9h77.961A12.273,12.273,0,0,1,452.17,438.16v16.888a3,3,0,0,1-6,0V438.16a6.266,6.266,0,0,0-6.259-6.259H361.95a6.263,6.263,0,0,0-6.252,6.259v73.2a6.259,6.259,0,0,0,6.252,6.252h43.718a3,3,0,0,1,0,6Z" transform="translate(-352.698 -415.827)" fill="#e5eff2"/><path d="M96.471,3H0A3,3,0,0,1-3,0,3,3,0,0,1,0-3H96.471a3,3,0,0,1,3,3A3,3,0,0,1,96.471,3Z" transform="translate(0 39.223)" fill="#e5eff2"/><path d="M9.475,3H0A3,3,0,0,1-3,0,3,3,0,0,1,0-3H9.475a3,3,0,0,1,3,3A3,3,0,0,1,9.475,3Z" transform="translate(17.176 60.425)" fill="#e5eff2"/><path d="M9.475,3H0A3,3,0,0,1-3,0,3,3,0,0,1,0-3H9.475a3,3,0,0,1,3,3A3,3,0,0,1,9.475,3Z" transform="translate(43.498 60.425)" fill="#e5eff2"/><path d="M0,16.077a3,3,0,0,1-3-3V0A3,3,0,0,1,0-3,3,3,0,0,1,3,0V13.077A3,3,0,0,1,0,16.077Z" transform="translate(48.235 0)" fill="#e5eff2"/><path d="M0,16.077a3,3,0,0,1-3-3V0A3,3,0,0,1,0-3,3,3,0,0,1,3,0V13.077A3,3,0,0,1,0,16.077Z" transform="translate(77.19 0)" fill="#e5eff2"/><path d="M0,16.077a3,3,0,0,1-3-3V0A3,3,0,0,1,0-3,3,3,0,0,1,3,0V13.077A3,3,0,0,1,0,16.077Z" transform="translate(19.214 0)" fill="#e5eff2"/><path d="M9.475,3H0A3,3,0,0,1-3,0,3,3,0,0,1,0-3H9.475a3,3,0,0,1,3,3A3,3,0,0,1,9.475,3Z" transform="translate(69.752 60.425)" fill="#e5eff2"/><path d="M9.475,3H0A3,3,0,0,1-3,0,3,3,0,0,1,0-3H9.475a3,3,0,0,1,3,3A3,3,0,0,1,9.475,3Z" transform="translate(17.176 79.747)" fill="#e5eff2"/><path d="M9.475,3H0A3,3,0,0,1-3,0,3,3,0,0,1,0-3H9.475a3,3,0,0,1,3,3A3,3,0,0,1,9.475,3Z" transform="translate(43.498 79.747)" fill="#e5eff2"/><g transform="translate(66.332 26.761)"><path d="M0-3H59.485a3,3,0,0,1,3,3V17.333a3,3,0,0,1-3,3H0a3,3,0,0,1-3-3V0A3,3,0,0,1,0-3ZM56.485,3H3V14.333H56.485Z" transform="translate(11.19 53.124) rotate(-45)" fill="#e5eff2"/><path d="M12.256,15.256a2.991,2.991,0,0,1-2.121-.879L-2.121,2.121a3,3,0,0,1,0-4.243,3,3,0,0,1,4.243,0L14.377,10.135a3,3,0,0,1-2.121,5.121Z" transform="translate(64.314)" fill="#e5eff2"/><path d="M361.924,456.08a3,3,0,0,1-2.987-3.276l1.246-13.5a3,3,0,1,1,5.975.552l-.915,9.908,9.907-.915a3,3,0,1,1,.552,5.975l-13.5,1.247C362.108,456.076,362.016,456.08,361.924,456.08Z" transform="translate(-361.924 -376.509)" fill="#e5eff2"/></g></g></svg>