<svg xmlns="http://www.w3.org/2000/svg" width="299.887" height="208.563" viewBox="0 0 299.887 208.563"><g transform="translate(-414.214 -397.149)"><g transform="translate(414.214 397.149)"><path d="M506.548,590.82h-84.8a7.446,7.446,0,1,0-.177,14.892H638.686V528.436a4.87,4.87,0,0,0-4.264,2.475l-30.237,52.983a4.929,4.929,0,0,1-4.264,2.475H578.831a5.766,5.766,0,0,1-4.938-3.226h-.044l-9.964-17.919a4.862,4.862,0,0,1,1.226-6.176l2.2-1.756a4.914,4.914,0,0,1,6.9.773,4.793,4.793,0,0,1,.453.674h0a4.914,4.914,0,0,0,8.55.044l46.83-82.037a4.887,4.887,0,0,0,0-4.828l-12.219-17.643a4.877,4.877,0,0,1,1.138-6.187l2.188-1.8a4.92,4.92,0,0,1,6.915.674,4.564,4.564,0,0,1,.464.674L634.4,457.91a4.869,4.869,0,0,0,4.264,2.474V397.149A141.649,141.649,0,0,0,506.548,590.82Z" transform="translate(-414.214 -397.149)" fill="#edf4f6"/></g><g transform="translate(638.686 445.146)"><path d="M1829.927,784.7l30.237,52.983a4.927,4.927,0,0,0,4.263,2.474h21.09a5.746,5.746,0,0,0,4.938-3.193h.044l9.964-17.919a4.862,4.862,0,0,0-1.226-6.175l-2.2-1.756a4.913,4.913,0,0,0-7.358,1.447h0a4.913,4.913,0,0,1-8.549.044L1834.3,730.571a4.887,4.887,0,0,1,0-4.827l12.219-17.687a4.865,4.865,0,0,0-1.149-6.187l-2.2-1.8a4.91,4.91,0,0,0-6.916.674,4.544,4.544,0,0,0-.464.674l-5.866,10.274a4.87,4.87,0,0,1-4.264,2.475v68.063A4.856,4.856,0,0,1,1829.927,784.7Z" transform="translate(-1825.663 -698.95)" fill="#edf4f6"/></g></g></svg>