<svg xmlns="http://www.w3.org/2000/svg" width="26" height="17" viewBox="0 0 26 17"><g transform="translate(-940 -649)"><rect width="26" height="17" rx="3" transform="translate(940 649)" fill="#fff"/><path d="M3,1A2,2,0,0,0,1,3V14a2,2,0,0,0,2,2H23a2,2,0,0,0,2-2V3a2,2,0,0,0-2-2H3M3,0H23a3,3,0,0,1,3,3V14a3,3,0,0,1-3,3H3a3,3,0,0,1-3-3V3A3,3,0,0,1,3,0Z" transform="translate(940 649)" fill="#bfd1d6"/><g transform="translate(942.39 654)"><path d="M70.04,76.169l1.057-6.2h1.691l-1.058,6.2Z" transform="translate(-62.682 -69.857)" fill="#004088"/><path d="M98.249,69.319a4.367,4.367,0,0,0-1.516-.261c-1.671,0-2.848.841-2.858,2.047-.009.892.84,1.389,1.482,1.686.658.3.88.5.876.77,0,.416-.526.606-1.012.606a3.545,3.545,0,0,1-1.592-.326l-.218-.1-.237,1.389a5.354,5.354,0,0,0,1.884.331c1.778,0,2.932-.832,2.945-2.12.006-.706-.444-1.243-1.42-1.686-.591-.287-.953-.479-.949-.769,0-.258.306-.534.969-.534a3.119,3.119,0,0,1,1.266.238l.152.072.229-1.345" transform="translate(-83.066 -69.058)" fill="#004088"/><path d="M137.483,70.015h-1.307a.841.841,0,0,0-.886.515l-2.512,5.686h1.776s.29-.765.356-.932l2.166,0c.051.217.206.93.206.93h1.569l-1.369-6.2m-2.085,4c.14-.357.674-1.734.674-1.734-.01.017.139-.359.224-.592l.114.535s.324,1.481.391,1.792Z" transform="translate(-117.964 -69.901)" fill="#004088"/><path d="M27.158,70,25.5,74.234l-.176-.86a4.841,4.841,0,0,0-2.342-2.6L24.5,76.2l1.789,0L28.95,70H27.158" transform="translate(-21.218 -69.891)" fill="#004088"/><path d="M10.875,69.971H8.148l-.022.129a5.6,5.6,0,0,1,4.108,3.246l-.593-2.851a.708.708,0,0,0-.767-.524" transform="translate(-8.126 -69.862)" fill="#004088"/></g></g></svg>