<svg xmlns="http://www.w3.org/2000/svg" width="45.489" height="13.947" viewBox="0 0 45.489 13.947"><g transform="translate(0)"><path d="M70.04,83.477l2.3-13.512h3.683l-2.3,13.512Z" transform="translate(-54.015 -69.73)" fill="#004088"/><path d="M104.225,69.625a9.509,9.509,0,0,0-3.3-.567c-3.639,0-6.2,1.833-6.224,4.459-.02,1.941,1.83,3.025,3.227,3.671,1.433.662,1.916,1.084,1.909,1.676-.009.906-1.145,1.32-2.2,1.32a7.72,7.72,0,0,1-3.467-.709l-.475-.215-.517,3.025a11.66,11.66,0,0,0,4.1.721c3.871,0,6.385-1.812,6.413-4.616.014-1.537-.967-2.707-3.092-3.671-1.287-.625-2.076-1.042-2.067-1.675,0-.562.667-1.162,2.109-1.162a6.792,6.792,0,0,1,2.756.518l.33.156.5-2.929" transform="translate(-71.161 -69.058)" fill="#004088"/><path d="M143.023,70.015h-2.846a1.832,1.832,0,0,0-1.929,1.12l-5.47,12.383h3.867s.632-1.665.775-2.031l4.717.006c.11.473.448,2.025.448,2.025H146l-2.981-13.5m-4.541,8.709c.3-.779,1.467-3.777,1.467-3.777-.021.036.3-.782.488-1.289l.249,1.165s.705,3.225.853,3.9Z" transform="translate(-100.516 -69.767)" fill="#004088"/><path d="M32.075,70l-3.606,9.214-.384-1.873a10.543,10.543,0,0,0-5.1-5.668l3.3,11.817,3.9,0L35.976,70h-3.9" transform="translate(-19.139 -69.758)" fill="#004088"/><path d="M14.112,69.971H8.173l-.047.281c4.62,1.118,7.677,3.821,8.946,7.069l-1.291-6.209a1.542,1.542,0,0,0-1.669-1.141" transform="translate(-8.126 -69.735)" fill="#f99300"/></g></svg>