<svg xmlns="http://www.w3.org/2000/svg" width="26" height="17" viewBox="0 0 26 17"><g transform="translate(-972 -649)"><rect width="26" height="17" rx="3" transform="translate(972 649)" fill="#fff"/><path d="M3,1A2,2,0,0,0,1,3V14a2,2,0,0,0,2,2H23a2,2,0,0,0,2-2V3a2,2,0,0,0-2-2H3M3,0H23a3,3,0,0,1,3,3V14a3,3,0,0,1-3,3H3a3,3,0,0,1-3-3V3A3,3,0,0,1,3,0Z" transform="translate(972 649)" fill="#bfd1d6"/><g transform="translate(976.287 652)"><g transform="translate(0 0)"><ellipse cx="2.068" cy="4.27" rx="2.068" ry="4.27" transform="translate(6.756 1.176)" fill="#e54800"/><path d="M78.01,406.582a5.434,5.434,0,0,1,2.068-4.27,5.446,5.446,0,1,0,0,8.54A5.434,5.434,0,0,1,78.01,406.582Z" transform="translate(-71.254 -401.136)" fill="#d90010"/><path d="M294.459,401.136a5.421,5.421,0,0,0-3.378,1.176,5.442,5.442,0,0,1,0,8.54,5.445,5.445,0,1,0,3.378-9.716Z" transform="translate(-282.258 -401.136)" fill="#f78b00"/></g></g></g></svg>