<svg xmlns="http://www.w3.org/2000/svg" width="21.831" height="16.964" viewBox="0 0 21.831 16.964"><g transform="translate(0)"><g transform="translate(1.101 14.35)"><path d="M96.1,704.343a.661.661,0,0,0-.223-.146.746.746,0,0,0-.282-.052,1.074,1.074,0,0,0-.169.014.74.74,0,0,0-.171.049.646.646,0,0,0-.16.1.587.587,0,0,0-.132.157.641.641,0,0,0-.244-.234.72.72,0,0,0-.353-.085.838.838,0,0,0-.138.012.646.646,0,0,0-.142.042.558.558,0,0,0-.251.211v-.218h-.375v1.786h.379v-.99a.531.531,0,0,1,.036-.2.436.436,0,0,1,.1-.148.4.4,0,0,1,.142-.09.485.485,0,0,1,.173-.031.373.373,0,0,1,.3.121.512.512,0,0,1,.105.347v.994h.379v-.99a.532.532,0,0,1,.036-.2.436.436,0,0,1,.1-.148.4.4,0,0,1,.142-.09.485.485,0,0,1,.173-.031.373.373,0,0,1,.3.121.512.512,0,0,1,.105.347v.994H96.3v-1.122a.776.776,0,0,0-.051-.287A.654.654,0,0,0,96.1,704.343Z" transform="translate(-93.461 -703.465)" fill="#161615"/><path d="M159.087,704.407a.676.676,0,0,0-.561-.263.871.871,0,0,0-.634.265.9.9,0,0,0-.19.3,1.067,1.067,0,0,0,0,.755.9.9,0,0,0,.19.3.872.872,0,0,0,.634.265.714.714,0,0,0,.33-.071.687.687,0,0,0,.231-.19v.214h.39v-1.786h-.39Zm-.015.9a.543.543,0,0,1-.11.181.513.513,0,0,1-.17.12.581.581,0,0,1-.446,0,.5.5,0,0,1-.169-.123.545.545,0,0,1-.106-.182.678.678,0,0,1,0-.443.547.547,0,0,1,.106-.182.505.505,0,0,1,.169-.123.579.579,0,0,1,.446,0,.509.509,0,0,1,.17.12.543.543,0,0,1,.11.181.68.68,0,0,1,0,.455Z" transform="translate(-154.45 -703.465)" fill="#161615"/><path d="M203.792,705.117a.962.962,0,0,0-.457-.171l-.185-.028q-.062-.009-.116-.021a.384.384,0,0,1-.093-.033.179.179,0,0,1-.062-.052.128.128,0,0,1-.023-.078.178.178,0,0,1,.089-.154.447.447,0,0,1,.249-.059.91.91,0,0,1,.165.015,1.366,1.366,0,0,1,.154.037,1.109,1.109,0,0,1,.132.049,1.076,1.076,0,0,1,.1.051l.168-.3a1.145,1.145,0,0,0-.326-.139,1.545,1.545,0,0,0-.4-.049,1.086,1.086,0,0,0-.308.04.7.7,0,0,0-.232.114.5.5,0,0,0-.147.18.542.542,0,0,0-.051.239.44.44,0,0,0,.154.349.859.859,0,0,0,.452.174l.186.024a.587.587,0,0,1,.235.072.147.147,0,0,1,.075.126.178.178,0,0,1-.1.159.623.623,0,0,1-.3.059,1.168,1.168,0,0,1-.2-.015.994.994,0,0,1-.158-.04.766.766,0,0,1-.129-.058.941.941,0,0,1-.105-.07l-.181.293a.957.957,0,0,0,.2.117,1.373,1.373,0,0,0,.209.07,1.317,1.317,0,0,0,.194.034q.091.008.16.008a1.267,1.267,0,0,0,.344-.043.774.774,0,0,0,.255-.12.533.533,0,0,0,.158-.184.509.509,0,0,0,.055-.236A.427.427,0,0,0,203.792,705.117Z" transform="translate(-196.975 -703.501)" fill="#161615"/><path d="M275.738,704.4a.764.764,0,0,0-.266-.192.844.844,0,0,0-.342-.068.927.927,0,0,0-.361.068.811.811,0,0,0-.28.192.874.874,0,0,0-.183.3,1.077,1.077,0,0,0-.065.382,1.06,1.06,0,0,0,.067.386.857.857,0,0,0,.188.3.834.834,0,0,0,.289.19.986.986,0,0,0,.369.067,1.322,1.322,0,0,0,.387-.056.974.974,0,0,0,.348-.2l-.194-.278a.868.868,0,0,1-.247.139.78.78,0,0,1-.269.049.634.634,0,0,1-.183-.026.477.477,0,0,1-.159-.081.491.491,0,0,1-.121-.141.582.582,0,0,1-.069-.207h1.32q0-.034.006-.071c0-.025,0-.05,0-.074a1.112,1.112,0,0,0-.062-.381A.9.9,0,0,0,275.738,704.4Zm-1.089.526a.662.662,0,0,1,.052-.178.477.477,0,0,1,.1-.14.4.4,0,0,1,.14-.09.507.507,0,0,1,.185-.032.415.415,0,0,1,.3.116.557.557,0,0,1,.149.324Z" transform="translate(-265.273 -703.465)" fill="#161615"/><path d="M380.918,704.407a.676.676,0,0,0-.561-.263.872.872,0,0,0-.634.265.9.9,0,0,0-.19.3,1.067,1.067,0,0,0,0,.755.9.9,0,0,0,.19.3.872.872,0,0,0,.634.265.714.714,0,0,0,.33-.071.687.687,0,0,0,.231-.19v.214h.39v-1.786h-.39Zm-.015.9a.542.542,0,0,1-.11.181.512.512,0,0,1-.17.12.581.581,0,0,1-.446,0,.5.5,0,0,1-.169-.123.545.545,0,0,1-.106-.182.678.678,0,0,1,0-.443.547.547,0,0,1,.106-.182.5.5,0,0,1,.169-.123.579.579,0,0,1,.446,0,.509.509,0,0,1,.17.12.542.542,0,0,1,.11.181.68.68,0,0,1,0,.455Z" transform="translate(-365.278 -703.465)" fill="#161615"/><path d="M241.271,696.156a.526.526,0,0,1-.186.035.32.32,0,0,1-.111-.019.23.23,0,0,1-.089-.059.284.284,0,0,1-.061-.1.461.461,0,0,1-.022-.153v-.777h.626v-.354H240.8v-.541h-.391v.541h-.356v.354h.356v.785a.716.716,0,0,0,.169.525.639.639,0,0,0,.472.169.839.839,0,0,0,.3-.052,1.279,1.279,0,0,0,.166-.078l-.133-.326A.961.961,0,0,1,241.271,696.156Z" transform="translate(-232.784 -694.001)" fill="#161615"/><path d="M318.775,704.144a.713.713,0,0,0-.3.06.63.63,0,0,0-.222.221v-.234H317.9v1.786h.357v-.982a.606.606,0,0,1,.032-.2.44.44,0,0,1,.088-.151.362.362,0,0,1,.134-.093.453.453,0,0,1,.171-.032.763.763,0,0,1,.153.017.628.628,0,0,1,.078.021l.115-.373a.7.7,0,0,0-.1-.024A.991.991,0,0,0,318.775,704.144Z" transform="translate(-306.771 -703.465)" fill="#161615"/><path d="M427.951,704.144a.714.714,0,0,0-.3.06.629.629,0,0,0-.222.221v-.234h-.354v1.786h.357v-.982a.607.607,0,0,1,.032-.2.442.442,0,0,1,.088-.151.363.363,0,0,1,.134-.093.453.453,0,0,1,.171-.032.762.762,0,0,1,.153.017.624.624,0,0,1,.078.021l.115-.373a.7.7,0,0,0-.1-.024A.991.991,0,0,0,427.951,704.144Z" transform="translate(-410.531 -703.465)" fill="#161615"/><path d="M453.482,690.452v.942a.7.7,0,0,0-.231-.191.706.706,0,0,0-.33-.072.872.872,0,0,0-.634.265.9.9,0,0,0-.19.3,1.067,1.067,0,0,0,0,.755.9.9,0,0,0,.19.3.871.871,0,0,0,.634.265.714.714,0,0,0,.33-.071.688.688,0,0,0,.231-.19v.214h.39v-2.511Zm-.015,1.846a.544.544,0,0,1-.11.181.511.511,0,0,1-.17.12.578.578,0,0,1-.446,0,.5.5,0,0,1-.169-.123.544.544,0,0,1-.106-.182.679.679,0,0,1,0-.444.545.545,0,0,1,.106-.182.5.5,0,0,1,.169-.123.581.581,0,0,1,.446,0,.513.513,0,0,1,.17.12.544.544,0,0,1,.11.181.681.681,0,0,1,0,.455Z" transform="translate(-434.243 -690.452)" fill="#161615"/><path d="M343.526,704.671a.526.526,0,0,1,.177-.117.578.578,0,0,1,.222-.042h0a.693.693,0,0,1,.244.042.584.584,0,0,1,.189.113l.188-.312a.957.957,0,0,0-.238-.138,1.058,1.058,0,0,0-.766,0,.9.9,0,0,0-.5.495.992.992,0,0,0,0,.746.9.9,0,0,0,.5.495,1.058,1.058,0,0,0,.766,0,.957.957,0,0,0,.238-.138l-.188-.312a.587.587,0,0,1-.189.113.7.7,0,0,1-.244.042h0a.58.58,0,0,1-.222-.042.526.526,0,0,1-.177-.118.547.547,0,0,1-.117-.181.651.651,0,0,1,0-.464A.548.548,0,0,1,343.526,704.671Z" transform="translate(-330.589 -703.465)" fill="#161615"/></g><g transform="translate(21.362 16.6)"><path d="M502.133,735.809a.186.186,0,0,1,.073.014.19.19,0,0,1,.059.039.184.184,0,0,1,.04.058.178.178,0,0,1,0,.141.185.185,0,0,1-.04.058.19.19,0,0,1-.059.039.185.185,0,0,1-.073.014.19.19,0,0,1-.074-.014.187.187,0,0,1-.06-.039.182.182,0,0,1-.04-.058.181.181,0,0,1,0-.141.18.18,0,0,1,.04-.058.187.187,0,0,1,.06-.039A.192.192,0,0,1,502.133,735.809Zm0,.314a.128.128,0,0,0,.051-.01.133.133,0,0,0,.069-.173.128.128,0,0,0-.028-.042.133.133,0,0,0-.042-.028.129.129,0,0,0-.051-.01.132.132,0,0,0-.052.01.135.135,0,0,0-.042.028.127.127,0,0,0-.028.042.136.136,0,0,0,0,.1.129.129,0,0,0,.028.042.132.132,0,0,0,.042.028A.131.131,0,0,0,502.133,736.123Zm.011-.212a.076.076,0,0,1,.05.015.049.049,0,0,1,.017.039.044.044,0,0,1-.012.032.064.064,0,0,1-.036.017l.05.058h-.054l-.045-.056h-.005v.056h-.045v-.161Zm-.035.039v.03h.034a.033.033,0,0,0,.016,0,.012.012,0,0,0,.006-.011.012.012,0,0,0-.006-.011.029.029,0,0,0-.016,0Z" transform="translate(-501.945 -735.809)" fill="#161615"/></g><g transform="translate(0 0)"><ellipse cx="2.555" cy="5.276" rx="2.555" ry="5.276" transform="translate(8.348 1.453)" fill="#e54800"/><path d="M79.6,407.865a6.716,6.716,0,0,1,2.555-5.276,6.729,6.729,0,1,0,0,10.553A6.716,6.716,0,0,1,79.6,407.865Z" transform="translate(-71.254 -401.136)" fill="#d90010"/><path d="M500.182,605.38v-.2h-.08v-.054h.218v.054h-.08v.2Zm.422,0v-.174l-.057.15h-.062l-.056-.15v.174h-.059v-.251h.084l.062.161.062-.161h.084v.251Z" transform="translate(-478.831 -595.011)" fill="#f78b00"/><path d="M295.255,401.136a6.7,6.7,0,0,0-4.174,1.453,6.725,6.725,0,0,1,0,10.553,6.729,6.729,0,1,0,4.174-12.006Z" transform="translate(-280.177 -401.136)" fill="#f78b00"/></g></g></svg>