<svg xmlns="http://www.w3.org/2000/svg" width="29" height="29" viewBox="0 0 29 29"><g transform="translate(-103 -88)"><path d="M14.5,1.2A13.3,13.3,0,0,0,5.1,23.9,13.3,13.3,0,0,0,23.9,5.1a13.213,13.213,0,0,0-9.4-3.9m0-1.2A14.5,14.5,0,1,1,0,14.5,14.5,14.5,0,0,1,14.5,0Z" transform="translate(103 88)" fill="#006681"/><g transform="translate(-678 -458)"><g transform="translate(787 554)"><path d="M3.253-.6A3.853,3.853,0,1,1-.6,3.253,3.858,3.858,0,0,1,3.253-.6Zm0,6.506A2.653,2.653,0,1,0,.6,3.253,2.656,2.656,0,0,0,3.253,5.906Z" transform="translate(2.587 0)" fill="#006681"/><path d="M186.69,508.385a.6.6,0,0,1-.6-.564,5.251,5.251,0,0,0-10.483,0,.6.6,0,1,1-1.2-.073,6.451,6.451,0,0,1,12.878,0,.6.6,0,0,1-.563.635Z" transform="translate(-175.01 -495.785)" fill="#006681"/><path d="M2.416-.6A3.016,3.016,0,1,1-.6,2.416,3.019,3.019,0,0,1,2.416-.6Zm0,4.831A1.816,1.816,0,1,0,.6,2.416,1.818,1.818,0,0,0,2.416,4.231Z" transform="translate(11.931 0)" fill="#006681"/><path d="M197.589,504.371a.6.6,0,0,1-.6-.564A3.744,3.744,0,0,0,190.5,501.5a.6.6,0,0,1-.883-.812,4.944,4.944,0,0,1,8.574,3.046.6.6,0,0,1-.563.635Z" transform="translate(-178.906 -494.86)" fill="#006681"/></g></g></g></svg>