<svg xmlns="http://www.w3.org/2000/svg" width="29" height="29" viewBox="0 0 29 29"><g transform="translate(-171 -88)"><path d="M14.5,1.2A13.3,13.3,0,0,0,5.1,23.9,13.3,13.3,0,0,0,23.9,5.1a13.213,13.213,0,0,0-9.4-3.9m0-1.2A14.5,14.5,0,1,1,0,14.5,14.5,14.5,0,0,1,14.5,0Z" transform="translate(171 88)" fill="#006681"/><g transform="translate(-765.324 -373.575)"><rect width="1.279" height="13.41" transform="translate(945.067 468.87)" fill="#006681"/><rect width="4.195" height="2.694" transform="translate(943.606 477.245)" fill="#006681"/><rect width="1.279" height="13.41" transform="translate(950.225 468.87)" fill="#006681"/><rect width="4.195" height="2.694" transform="translate(948.768 471.03)" fill="#006681"/><rect width="1.279" height="13.41" transform="translate(955.384 468.87)" fill="#006681"/><rect width="4.195" height="2.694" transform="translate(953.847 475.456)" fill="#006681"/></g></g></svg>