<svg xmlns="http://www.w3.org/2000/svg" width="26.168" height="18.778" viewBox="0 0 26.168 18.778"><g transform="translate(0.75 0.75)"><g transform="translate(3.183 2.526)"><path d="M2.85-.75a3.6,3.6,0,1,1-3.6,3.6A3.6,3.6,0,0,1,2.85-.75Zm0,5.7a2.1,2.1,0,1,0-2.1-2.1A2.1,2.1,0,0,0,2.85,4.95Z" transform="translate(2.267)" fill="#006681"/><path d="M315.794,442.725a9.912,9.912,0,0,1-5.534-1.678.75.75,0,0,1-.331-.669,5.876,5.876,0,0,1,11.73,0,.75.75,0,0,1-.331.668A9.912,9.912,0,0,1,315.794,442.725Zm-4.32-2.685a8.466,8.466,0,0,0,8.641,0,4.377,4.377,0,0,0-8.641,0Z" transform="translate(-310.678 -429.911)" fill="#006681"/></g><path d="M5.16.75H0A.75.75,0,0,1-.75,0,.75.75,0,0,1,0-.75H5.16A.75.75,0,0,1,5.91,0,.75.75,0,0,1,5.16.75Z" transform="translate(16.028 4.707)" fill="#006681"/><path d="M5.16.75H0A.75.75,0,0,1-.75,0,.75.75,0,0,1,0-.75H5.16A.75.75,0,0,1,5.91,0,.75.75,0,0,1,5.16.75Z" transform="translate(16.028 8.546)" fill="#006681"/><path d="M5.16.75H0A.75.75,0,0,1-.75,0,.75.75,0,0,1,0-.75H5.16A.75.75,0,0,1,5.91,0,.75.75,0,0,1,5.16.75Z" transform="translate(16.028 12.385)" fill="#006681"/><path d="M3.043-.75H21.625a3.8,3.8,0,0,1,3.793,3.793V14.235a3.8,3.8,0,0,1-3.793,3.793H3.043A3.8,3.8,0,0,1-.75,14.235V3.043A3.8,3.8,0,0,1,3.043-.75ZM21.625,16.528a2.3,2.3,0,0,0,2.293-2.293V3.043A2.3,2.3,0,0,0,21.625.75H3.043A2.3,2.3,0,0,0,.75,3.043V14.235a2.3,2.3,0,0,0,2.293,2.293Z" transform="translate(0 0)" fill="#006681"/></g></svg>