<svg xmlns="http://www.w3.org/2000/svg" width="22.797" height="15" viewBox="0 0 22.797 15"><g transform="translate(-786.5 -553.5)"><g transform="translate(787 554)"><path d="M3.8-.5A4.3,4.3,0,1,1-.5,3.8,4.3,4.3,0,0,1,3.8-.5Zm0,7.591A3.3,3.3,0,1,0,.5,3.8,3.3,3.3,0,0,0,3.8,7.091Z" transform="translate(3.018 0)" fill="#006681"/><path d="M188.637,509.2a.5.5,0,0,1-.5-.47,6.326,6.326,0,0,0-12.629,0,.5.5,0,1,1-1-.06,7.326,7.326,0,0,1,14.625,0,.5.5,0,0,1-.469.529Z" transform="translate(-175.01 -494.7)" fill="#006681"/><path d="M2.818-.5A3.318,3.318,0,1,1-.5,2.818,3.322,3.322,0,0,1,2.818-.5Zm0,5.637A2.318,2.318,0,1,0,.5,2.818,2.321,2.321,0,0,0,2.818,5.137Z" transform="translate(13.919 0)" fill="#006681"/><path d="M198.844,504.951a.5.5,0,0,1-.5-.47,4.568,4.568,0,0,0-7.922-2.814.5.5,0,1,1-.736-.677,5.568,5.568,0,0,1,9.656,3.431.5.5,0,0,1-.469.529Z" transform="translate(-177.048 -494.055)" fill="#006681"/></g></g></svg>