<svg xmlns="http://www.w3.org/2000/svg" width="29.191" height="20.408" viewBox="0 0 29.191 20.408"><g transform="translate(0.6 0.6)"><g transform="translate(0 0)"><path d="M465.24,491.937a4.587,4.587,0,0,1,3.412,1.531,3.7,3.7,0,0,1,5.259,3.351,3.257,3.257,0,0,1-.046.541,2.949,2.949,0,0,1-1.158,5.662,2.916,2.916,0,0,1-1.964-.754,4.549,4.549,0,0,1-7.575.39,3.33,3.33,0,0,1-1.515.364,3.394,3.394,0,0,1-1-6.64A4.592,4.592,0,0,1,465.24,491.937Zm3.261,2.9a.6.6,0,0,1-.491-.255,3.382,3.382,0,0,0-6.156,1.938,1.1,1.1,0,0,0,.013.125c.006.047.014.1.019.159a.6.6,0,0,1-.519.645,2.194,2.194,0,0,0,.287,4.371,2.176,2.176,0,0,0,1.332-.461.6.6,0,0,1,.89.185,3.356,3.356,0,0,0,6.16-.618.6.6,0,0,1,1.11-.086,1.746,1.746,0,1,0,1.89-2.487.6.6,0,0,1-.459-.774,2.487,2.487,0,0,0-3.744-2.841A.6.6,0,0,1,468.5,494.84Z" transform="translate(-458.851 -492.537)" fill="#006681"/><path d="M463.353,512.027a.6.6,0,0,1-.242-1.149,2.7,2.7,0,0,0,1.61-2.468v-4.825a.6.6,0,0,1,1.2,0v4.825a3.9,3.9,0,0,1-2.328,3.567A.6.6,0,0,1,463.353,512.027Z" transform="translate(-458.722 -492.219)" fill="#006681"/><path d="M470.04,512.027a.6.6,0,0,1-.241-.051,3.9,3.9,0,0,1-2.329-3.567v-4.825a.6.6,0,0,1,1.2,0v4.825a2.7,2.7,0,0,0,1.611,2.468.6.6,0,0,1-.242,1.15Z" transform="translate(-458.586 -492.219)" fill="#006681"/></g><g transform="translate(15.185 5.013)"><path d="M479.939,496.81a4.258,4.258,0,0,1,4.071,3h.008a3,3,0,1,1-2.148,5.09,4.241,4.241,0,0,1-1.931.463,4.171,4.171,0,0,1-2.184-.616,2.733,2.733,0,0,1-1.973.833,2.77,2.77,0,1,1,0-5.539h.031A4.249,4.249,0,0,1,479.939,496.81Zm3.611,4.243a.6.6,0,0,1-.591-.5,3.058,3.058,0,0,0-6.059.212.6.6,0,0,1-.743.52,1.529,1.529,0,0,0-.374-.052,1.57,1.57,0,1,0,0,3.139,1.554,1.554,0,0,0,1.337-.763.6.6,0,0,1,.892-.155,3.027,3.027,0,0,0,3.659.163.6.6,0,0,1,.841.166,1.8,1.8,0,1,0,1.505-2.781,1.825,1.825,0,0,0-.352.036A.6.6,0,0,1,483.55,501.053Z" transform="translate(-473.612 -497.41)" fill="#006681"/><path d="M476.721,512a.6.6,0,0,1-.242-1.149,2.331,2.331,0,0,0,1.392-2.133v-4.289a.6.6,0,0,1,1.2,0v4.289a3.531,3.531,0,0,1-2.108,3.231A.6.6,0,0,1,476.721,512Z" transform="translate(-473.523 -497.208)" fill="#006681"/><path d="M482.664,512a.6.6,0,0,1-.241-.051,3.531,3.531,0,0,1-2.108-3.231v-4.289a.6.6,0,0,1,1.2,0v4.289a2.331,2.331,0,0,0,1.392,2.133.6.6,0,0,1-.242,1.149Z" transform="translate(-473.402 -497.208)" fill="#006681"/></g></g></svg>