<svg xmlns="http://www.w3.org/2000/svg" width="19.358" height="20.376" viewBox="0 0 19.358 20.376"><g transform="translate(0.6 0.6)"><path d="M0-.6H7.815a.6.6,0,0,1,.6.6V19.176a.6.6,0,0,1-.6.6H0a.6.6,0,0,1-.6-.6V0A.6.6,0,0,1,0-.6ZM7.215.6H.6V18.576H7.215Z" transform="translate(0 0)" fill="#006681"/><path d="M0-.6H8.483a.6.6,0,0,1,.6.6V9.588a.6.6,0,0,1-.6.6H0a.6.6,0,0,1-.6-.6V0A.6.6,0,0,1,0-.6ZM7.883.6H.6V8.988H7.883Z" transform="translate(7.815 9.588)" fill="#006681"/><path d="M1.093-.6h.063A1.7,1.7,0,0,1,2.849,1.093V3.425a.6.6,0,0,1-.6.6H0a.6.6,0,0,1-.6-.6V1.093A1.7,1.7,0,0,1,1.093-.6Zm.556,3.425V1.093A.493.493,0,0,0,1.156.6H1.093A.493.493,0,0,0,.6,1.093V2.825Z" transform="translate(10.932 15.751)" fill="#006681"/><path d="M0,1.9a.6.6,0,0,1-.6-.6V0A.6.6,0,0,1,0-.6.6.6,0,0,1,.6,0V1.3A.6.6,0,0,1,0,1.9Z" transform="translate(5.186 2.463)" fill="#006681"/><path d="M0,1.9a.6.6,0,0,1-.6-.6V0A.6.6,0,0,1,0-.6.6.6,0,0,1,.6,0V1.3A.6.6,0,0,1,0,1.9Z" transform="translate(2.629 2.463)" fill="#006681"/><path d="M0,1.9a.6.6,0,0,1-.6-.6V0A.6.6,0,0,1,0-.6.6.6,0,0,1,.6,0V1.3A.6.6,0,0,1,0,1.9Z" transform="translate(5.186 6.601)" fill="#006681"/><path d="M0,1.9a.6.6,0,0,1-.6-.6V0A.6.6,0,0,1,0-.6.6.6,0,0,1,.6,0V1.3A.6.6,0,0,1,0,1.9Z" transform="translate(2.629 6.601)" fill="#006681"/><path d="M0,1.9a.6.6,0,0,1-.6-.6V0A.6.6,0,0,1,0-.6.6.6,0,0,1,.6,0V1.3A.6.6,0,0,1,0,1.9Z" transform="translate(5.186 10.739)" fill="#006681"/><path d="M0,1.9a.6.6,0,0,1-.6-.6V0A.6.6,0,0,1,0-.6.6.6,0,0,1,.6,0V1.3A.6.6,0,0,1,0,1.9Z" transform="translate(2.629 10.739)" fill="#006681"/><path d="M0,1.9a.6.6,0,0,1-.6-.6V0A.6.6,0,0,1,0-.6.6.6,0,0,1,.6,0V1.3A.6.6,0,0,1,0,1.9Z" transform="translate(5.186 14.878)" fill="#006681"/><path d="M0,1.9a.6.6,0,0,1-.6-.6V0A.6.6,0,0,1,0-.6.6.6,0,0,1,.6,0V1.3A.6.6,0,0,1,0,1.9Z" transform="translate(2.629 14.878)" fill="#006681"/><path d="M0,1.9a.6.6,0,0,1-.6-.6V0A.6.6,0,0,1,0-.6.6.6,0,0,1,.6,0V1.3A.6.6,0,0,1,0,1.9Z" transform="translate(13.44 12.103)" fill="#006681"/><path d="M0,1.9a.6.6,0,0,1-.6-.6V0A.6.6,0,0,1,0-.6.6.6,0,0,1,.6,0V1.3A.6.6,0,0,1,0,1.9Z" transform="translate(10.883 12.103)" fill="#006681"/><path d="M524.3,502.52h-1.86a.6.6,0,0,1,0-1.2h.311l-1.834-1.673h-6.96a.6.6,0,0,1,0-1.2h7.193a.6.6,0,0,1,.4.157l3.15,2.873a.6.6,0,0,1-.4,1.043Z" transform="translate(-506.142 -492.35)" fill="#006681"/></g></svg>