<svg xmlns="http://www.w3.org/2000/svg" width="19.575" height="25" viewBox="0 0 19.575 25"><g transform="translate(-947.049 -259.563)"><path d="M966.378,264.975l-5.165-5.166a.837.837,0,0,0-.593-.246H947.888a.839.839,0,0,0-.839.839v23.322a.839.839,0,0,0,.839.839h17.9a.839.839,0,0,0,.839-.839V265.568A.839.839,0,0,0,966.378,264.975Zm-4.919-2.548,2.3,2.3h-2.3Zm-12.732,20.459V261.241h11.054v4.327a.839.839,0,0,0,.839.839h4.327v16.479Z" transform="translate(0)" fill="#0050d0"/><g transform="translate(951.418 269.648)"><path d="M953.375,275.917l-2.285-7.22h1.857l1.353,4.732,1.244-4.732h1.843l1.2,4.732,1.38-4.732h1.883l-2.319,7.22H957.7l-1.244-4.644-1.224,4.644Z" transform="translate(-951.09 -268.696)" fill="#0050d0"/></g></g></svg>