<svg xmlns="http://www.w3.org/2000/svg" width="10.692" height="15.296" viewBox="0 0 10.692 15.296"><path d="M12.721,2.875a5.187,5.187,0,0,1,5.346,5c0,3.635-4.755,9.564-4.957,9.815l-.389.482-.389-.482c-.2-.251-4.957-6.18-4.957-9.815A5.187,5.187,0,0,1,12.721,2.875Zm0,13.684c1.133-1.493,4.346-5.967,4.346-8.685a4.188,4.188,0,0,0-4.346-4,4.188,4.188,0,0,0-4.346,4C8.375,10.595,11.588,15.067,12.721,16.559Zm0-10.417a2.078,2.078,0,1,1-2.078,2.078A2.081,2.081,0,0,1,12.721,6.143Zm0,3.157a1.078,1.078,0,1,0-1.078-1.078A1.08,1.08,0,0,0,12.721,9.3Z" transform="translate(-7.375 -2.875)"/></svg>