<svg xmlns="http://www.w3.org/2000/svg" width="37.986" height="27.667" viewBox="0 0 37.986 27.667"><g transform="translate(0.75 0.75)"><path d="M591.879,516.635a.75.75,0,0,1-.551-.241,25.32,25.32,0,0,0-10.382-6.507.75.75,0,0,1-.484-1.019,35.625,35.625,0,0,1,3.9-6.582,21.471,21.471,0,0,1,4.53-4.578,10.437,10.437,0,0,1,6.092-2.149,9.553,9.553,0,0,1,6.139,2.539,23.691,23.691,0,0,1,4.516,5.368,44.054,44.054,0,0,1,3.884,7.707.75.75,0,0,1-.653,1.007,52.508,52.508,0,0,0-16.667,4.38A.748.748,0,0,1,591.879,516.635Zm-9.691-7.916a26.765,26.765,0,0,1,2.933,1.265,26.182,26.182,0,0,1,6.929,4.991,49.463,49.463,0,0,1,11.154-3.492c1.978-.387,3.578-.6,4.547-.7a43.654,43.654,0,0,0-3.388-6.525,22.164,22.164,0,0,0-4.215-5.016,8.1,8.1,0,0,0-5.164-2.179C588.4,497.06,583.5,506.041,582.188,508.719Z" transform="translate(-576.145 -496.31)" fill="#006681"/><path d="M590.853,507.937a.75.75,0,0,1-.721-.543,29.289,29.289,0,0,1-1.049-7.247.75.75,0,0,1,.423-.675,8.608,8.608,0,0,1,2.956-.623.749.749,0,0,1,.726.416c.016.032,1.6,3.232,3.569,6.309a.75.75,0,0,1-.535,1.147,27.565,27.565,0,0,0-5.115,1.171A.75.75,0,0,1,590.853,507.937Zm-.256-7.265a29.009,29.009,0,0,0,.776,5.559,29.978,29.978,0,0,1,3.511-.824c-1.3-2.12-2.357-4.138-2.807-5.017A8.891,8.891,0,0,0,590.6,500.672Z" transform="translate(-569.017 -493.611)" fill="#006681"/><path d="M587.042,516.635h-.029a.75.75,0,0,1-.721-.778c.021-.546.536-13.445,3.16-19.831a.75.75,0,0,1,1.387.57c-2.524,6.142-3.044,19.187-3.049,19.318A.75.75,0,0,1,587.042,516.635Z" transform="translate(-571.308 -496.31)" fill="#006681"/><g transform="translate(0 16.813)"><path d="M1.172,1.529A.746.746,0,0,1,.758,1.4L-.415.625a.75.75,0,0,1-.21-1.04.75.75,0,0,1,1.04-.21L1.588.154a.75.75,0,0,1-.416,1.375Z" fill="#006681"/><path d="M2.347,2.309a.746.746,0,0,1-.414-.125L-.415.625a.75.75,0,0,1-.21-1.04.75.75,0,0,1,1.04-.21L2.762.935a.75.75,0,0,1-.416,1.375Z" transform="translate(5.867 3.897)" fill="#006681"/><path d="M586.664,511.781a.75.75,0,0,1-.415-.125l-1.173-.779a.75.75,0,0,1,.83-1.25l.9.6,1.05-.254a.75.75,0,0,1,.352,1.458l-1.368.331A.75.75,0,0,1,586.664,511.781Z" transform="translate(-572.582 -501.677)" fill="#006681"/><path d="M0,1.36A.75.75,0,0,1-.729.786.75.75,0,0,1-.176-.12L2.345-.729a.75.75,0,0,1,.905.553A.75.75,0,0,1,2.7.729L.176,1.338A.752.752,0,0,1,0,1.36Z" transform="translate(27.685 5.457)" fill="#006681"/><path d="M0,1.385A.75.75,0,0,1-.729.811.75.75,0,0,1-.176-.094L2.451-.729a.75.75,0,0,1,.905.553A.75.75,0,0,1,2.8.729L.176,1.364A.752.752,0,0,1,0,1.385Z" transform="translate(20.367 7.2)" fill="#006681"/><path d="M0,1.081A.75.75,0,0,1-.729.507.75.75,0,0,1-.176-.4L1.192-.729A.75.75,0,0,1,2.1-.176a.75.75,0,0,1-.553.905L.176,1.06A.752.752,0,0,1,0,1.081Z" transform="translate(35.117 3.939)" fill="#006681"/></g></g></svg>