<svg xmlns="http://www.w3.org/2000/svg" width="18.005" height="14.361" viewBox="0 0 18.005 14.361"><g transform="translate(-1.75 -5.125)"><path d="M3.077,14.125h.015a1.33,1.33,0,0,1,1.261.911h12.8a1.33,1.33,0,0,1,1.261-.911h.015a1.329,1.329,0,0,1,1.327,1.327V22.3a1.329,1.329,0,0,1-1.327,1.327h-.015a1.329,1.329,0,0,1-1.323-1.215H4.415a1.329,1.329,0,0,1-1.323,1.215H3.077A1.329,1.329,0,0,1,1.75,22.3V15.452A1.329,1.329,0,0,1,3.077,14.125ZM17.5,16.036H4a.584.584,0,0,1-.583-.584.328.328,0,0,0-.327-.327H3.077a.328.328,0,0,0-.327.327V22.3a.328.328,0,0,0,.327.327h.015A.328.328,0,0,0,3.42,22.3v-.235a.653.653,0,0,1,.652-.652H17.433a.653.653,0,0,1,.652.652V22.3a.328.328,0,0,0,.327.327h.015a.328.328,0,0,0,.327-.327V15.452a.328.328,0,0,0-.327-.327h-.015a.328.328,0,0,0-.327.327A.584.584,0,0,1,17.5,16.036Z" transform="translate(0 -4.141)" fill="#006681"/><path d="M18.7,11.211h-.854a.653.653,0,0,1-.652-.652v-.493a.109.109,0,0,0-.107-.107h-3.7a.109.109,0,0,0-.107.107v.493a.653.653,0,0,1-.652.652h-.911a.653.653,0,0,1-.652-.652v-.493a.109.109,0,0,0-.107-.107h-3.7a.109.109,0,0,0-.107.107v.493a.653.653,0,0,1-.652.652H5.647a.8.8,0,0,1-.8-.8V6.84A1.717,1.717,0,0,1,6.558,5.125H17.794A1.717,1.717,0,0,1,19.508,6.84v3.568A.8.8,0,0,1,18.7,11.211Zm-.506-1h.31V6.84a.715.715,0,0,0-.715-.715H6.558a.715.715,0,0,0-.715.715v3.372h.31v-.145A1.109,1.109,0,0,1,7.261,8.959h3.7a1.109,1.109,0,0,1,1.107,1.107v.145h.215v-.145a1.109,1.109,0,0,1,1.107-1.107h3.7A1.109,1.109,0,0,1,18.2,10.066Z" transform="translate(-1.424)" fill="#006681"/></g></svg>