<svg xmlns="http://www.w3.org/2000/svg" width="21.428" height="21.429" viewBox="0 0 21.428 21.429"><path d="M14.947-.751a1.777,1.777,0,0,1,.377.043l4.048.934a1.675,1.675,0,0,1,1.305,1.642A18.7,18.7,0,0,1,19.2,9.194a18.739,18.739,0,0,1-4.032,5.978A18.746,18.746,0,0,1,9.187,19.2a18.7,18.7,0,0,1-7.319,1.477,1.677,1.677,0,0,1-1.641-1.3l-.934-4.048a1.7,1.7,0,0,1,.974-1.93l.006,0,4.359-1.868a1.682,1.682,0,0,1,1.965.483L8.15,13.9a13.631,13.631,0,0,0,5.758-5.758L12.012,6.595a1.685,1.685,0,0,1-.484-1.967L13.4.269A1.689,1.689,0,0,1,14.947-.751ZM1.868,19.178a17.2,17.2,0,0,0,12.238-5.067A17.2,17.2,0,0,0,19.178,1.868a.183.183,0,0,0-.142-.18L14.987.754a.182.182,0,0,0-.04,0,.191.191,0,0,0-.173.113L12.907,5.219a.182.182,0,0,0,.05.211l0,0,2.811,2.3-.248.529A15.127,15.127,0,0,1,8.266,15.52l-.529.248-2.3-2.811a.185.185,0,0,0-.214-.054L.868,14.769a.2.2,0,0,0-.114.219l.934,4.047A.184.184,0,0,0,1.868,19.178Z" transform="translate(0.751 0.751)" fill="#006681"/></svg>