<svg xmlns="http://www.w3.org/2000/svg" width="13.135" height="12.077" viewBox="0 0 13.135 12.077"><g transform="translate(-0.75 -2.25)"><path d="M5.2,2.25a.749.749,0,0,1,.335.079L9.409,4.265l3.353-1.916A.75.75,0,0,1,13.885,3v8.462a.75.75,0,0,1-.378.651L9.8,14.228a.75.75,0,0,1-.708.02L5.226,12.312,1.872,14.228A.75.75,0,0,1,.75,13.577V5.115a.75.75,0,0,1,.378-.651l3.7-2.115A.75.75,0,0,1,5.2,2.25ZM9.433,5.865A.749.749,0,0,1,9.1,5.786L5.226,3.85,2.25,5.551v6.734L4.83,10.81a.75.75,0,0,1,.708-.02l3.872,1.936,2.976-1.7V4.292L9.8,5.767A.75.75,0,0,1,9.433,5.865Z" transform="translate(0 0)" fill="#fff"/><path d="M12,12.212a.75.75,0,0,1-.75-.75V3a.75.75,0,1,1,1.5,0v8.462A.75.75,0,0,1,12,12.212Z" transform="translate(-6.798 0)" fill="#fff"/><path d="M24,18.212a.75.75,0,0,1-.75-.75V9a.75.75,0,0,1,1.5,0v8.462A.75.75,0,0,1,24,18.212Z" transform="translate(-14.567 -3.885)" fill="#fff"/></g></svg>