<svg xmlns="http://www.w3.org/2000/svg" width="12.7" height="15" viewBox="0 0 12.7 15"><g transform="translate(-958.602 -507.603)"><path d="M967.522,515.44a3.16,3.16,0,1,0,3.16,3.16A3.16,3.16,0,0,0,967.522,515.44Zm1.8,4.376-.588.586-1.216-1.216L966.3,520.4l-.588-.586,1.217-1.218-1.217-1.217.588-.586,1.216,1.216,1.216-1.216.588.586-1.217,1.217Z" transform="translate(0.62 0.844)" fill="#7c9fac"/><g transform="translate(958.602 507.603)"><path d="M961.651,508.621h2.516a.448.448,0,0,0,.448-.447v-.57H961.2v.57A.449.449,0,0,0,961.651,508.621Z" transform="translate(-958.322 -507.603)" fill="#7c9fac"/><path d="M961.834,512.347v1.993h2.015v-1.993l-1.008-1.007Z" transform="translate(-958.254 -507.201)" fill="#7c9fac"/><path d="M965.725,507.6v.57a1.279,1.279,0,0,1-1.278,1.278h-2.516a1.28,1.28,0,0,1-1.278-1.278v-.57H958.6v11.475h5.492a4.063,4.063,0,0,1,3.684-3.684V507.6Zm-.138,6.536-.559-.559v1.994h-3.676V513.58l-.559.559-.586-.588,2.984-2.983,2.983,2.983Z" transform="translate(-958.602 -507.603)" fill="#7c9fac"/></g></g></svg>