<svg xmlns="http://www.w3.org/2000/svg" width="19.925" height="23.169" viewBox="0 0 19.925 23.169"><g transform="translate(-1740.1 430.9)"><g transform="translate(1658.636 -922.194)"><path d="M5.048-.9A5.948,5.948,0,1,1-.9,5.048,5.955,5.955,0,0,1,5.048-.9Zm0,10.1A4.148,4.148,0,1,0,.9,5.048,4.153,4.153,0,0,0,5.048,9.2Z" transform="translate(86.378 492.194)" fill="#006681"/><path d="M91.427,514.463a17.146,17.146,0,0,1-9.563-2.9.9.9,0,0,1-.4-.8,9.979,9.979,0,0,1,19.922,0,.9.9,0,0,1-.4.8A17.139,17.139,0,0,1,91.427,514.463Zm-8.117-4.108a15.426,15.426,0,0,0,16.233,0,8.18,8.18,0,0,0-16.233,0Z" fill="#006681"/></g></g></svg>