<svg xmlns="http://www.w3.org/2000/svg" width="23.219" height="14.163" viewBox="0 0 23.219 14.163"><g transform="translate(0.55 0.55)"><path d="M0-.55H17.233a.55.55,0,0,1,.55.55V9.589a.55.55,0,0,1-.55.55H0a.55.55,0,0,1-.55-.55V0A.55.55,0,0,1,0-.55ZM16.683.55H.55V9.039H16.683Z" transform="translate(2.443 3.474)" fill="#006681"/><path d="M1.264-.55h.4A1.816,1.816,0,0,1,3.474,1.264V4.453a.55.55,0,0,1-.55.55H0a.55.55,0,0,1-.55-.55V1.264A1.816,1.816,0,0,1,1.264-.55ZM2.374,3.9V1.264A.715.715,0,0,0,1.66.55h-.4a.715.715,0,0,0-.714.714V3.9Z" transform="translate(9.598 8.61)" fill="#006681"/><path d="M734.744,500.765H732.3a.55.55,0,1,1,0-1.1h1.039l-2.545-2.356H716.573l-2.545,2.356h1.039a.55.55,0,0,1,0,1.1h-2.443a.55.55,0,0,1-.374-.954l3.734-3.456a.55.55,0,0,1,.374-.146H731.01a.55.55,0,0,1,.374.146l3.734,3.456a.55.55,0,0,1-.374.954Z" transform="translate(-712.624 -496.759)" fill="#006681"/><path d="M0-.55H2.117a.55.55,0,0,1,.55.55V2.117a.55.55,0,0,1-.55.55H0a.55.55,0,0,1-.55-.55V0A.55.55,0,0,1,0-.55ZM1.567.55H.55V1.567H1.567Z" transform="translate(6.021 5.709)" fill="#006681"/><path d="M0-.55H2.117a.55.55,0,0,1,.55.55V2.117a.55.55,0,0,1-.55.55H0a.55.55,0,0,1-.55-.55V0A.55.55,0,0,1,0-.55ZM1.567.55H.55V1.567H1.567Z" transform="translate(16.098 7.826) rotate(180)" fill="#006681"/></g></svg>