<svg xmlns="http://www.w3.org/2000/svg" width="24.275" height="17.721" viewBox="0 0 24.275 17.721"><g transform="translate(0.55 0.55)"><path d="M587.965,509.293a.55.55,0,0,1-.4-.177A16,16,0,0,0,581,505a.55.55,0,0,1-.355-.747,22.71,22.71,0,0,1,2.487-4.2,13.711,13.711,0,0,1,2.893-2.923,6.7,6.7,0,0,1,3.912-1.378,6.139,6.139,0,0,1,3.947,1.63,15.123,15.123,0,0,1,2.883,3.426,28.067,28.067,0,0,1,2.474,4.91.55.55,0,0,1-.479.738,33.275,33.275,0,0,0-10.56,2.775A.549.549,0,0,1,587.965,509.293Zm-6.052-5.144a17.1,17.1,0,0,1,6.177,3.928,33.916,33.916,0,0,1,9.85-2.639,27.588,27.588,0,0,0-2.109-4.043c-1.328-2.068-3.429-4.534-5.894-4.534C585.854,496.86,582.793,502.373,581.912,504.149Z" transform="translate(-577.971 -496.31)" fill="#006681"/><path d="M590.481,504.969a.55.55,0,0,1-.529-.4,18.685,18.685,0,0,1-.669-4.623.55.55,0,0,1,.31-.5,5.544,5.544,0,0,1,1.9-.4.55.55,0,0,1,.532.3c.01.02,1.017,2.05,2.263,4a.55.55,0,0,1-.393.841,17.437,17.437,0,0,0-3.234.74A.551.551,0,0,1,590.481,504.969Zm-.086-4.633a18.4,18.4,0,0,0,.47,3.383,19.18,19.18,0,0,1,2.058-.484c-.785-1.29-1.416-2.488-1.707-3.054A5.646,5.646,0,0,0,590.394,500.335Z" transform="translate(-576.611 -495.795)" fill="#006681"/><path d="M587.042,509.293h-.021a.55.55,0,0,1-.529-.57c.013-.347.341-8.553,2.013-12.622a.55.55,0,1,1,1.017.418c-1.6,3.889-1.928,12.162-1.931,12.245A.55.55,0,0,1,587.042,509.293Z" transform="translate(-577.048 -496.31)" fill="#006681"/><g transform="translate(0 10.679)"><path d="M.744,1.045a.547.547,0,0,1-.3-.092L-.3.458A.55.55,0,0,1-.458-.3.55.55,0,0,1,.3-.458l.745.495a.55.55,0,0,1-.3,1.008Z" fill="#006681"/><path d="M1.49,1.54a.547.547,0,0,1-.3-.092L-.3.458A.55.55,0,0,1-.458-.3.55.55,0,0,1,.3-.458L1.8.532a.55.55,0,0,1-.3,1.008Z" transform="translate(3.727 2.476)" fill="#006681"/><path d="M586.236,511.3a.55.55,0,0,1-.3-.092l-.745-.495a.55.55,0,1,1,.609-.916l.545.362.636-.154a.55.55,0,0,1,.258,1.069l-.869.21A.55.55,0,0,1,586.236,511.3Z" transform="translate(-577.291 -504.806)" fill="#006681"/><path d="M0,.937A.55.55,0,0,1-.535.516.55.55,0,0,1-.129-.148l1.6-.387a.55.55,0,0,1,.664.405.55.55,0,0,1-.405.664L.129.922A.552.552,0,0,1,0,.937Z" transform="translate(17.585 3.466)" fill="#006681"/><path d="M0,.953A.55.55,0,0,1-.535.533.55.55,0,0,1-.129-.131l1.669-.4A.55.55,0,0,1,2.2-.129.55.55,0,0,1,1.8.535L.129.938A.552.552,0,0,1,0,.953Z" transform="translate(12.937 4.573)" fill="#006681"/><path d="M0,.76A.55.55,0,0,1-.535.339.55.55,0,0,1-.129-.325L.74-.535A.55.55,0,0,1,1.4-.129.55.55,0,0,1,1,.535L.129.745A.552.552,0,0,1,0,.76Z" transform="translate(22.305 2.502)" fill="#006681"/></g></g></svg>