<svg xmlns="http://www.w3.org/2000/svg" width="29" height="29" viewBox="0 0 29 29"><g transform="translate(-35 -88)"><g transform="translate(-1699.213 526)"><g transform="translate(1740 -430)"><path d="M2.835-.6A3.435,3.435,0,1,1-.6,2.835,3.439,3.439,0,0,1,2.835-.6Zm0,5.67A2.235,2.235,0,1,0,.6,2.835,2.238,2.238,0,0,0,2.835,5.07Z" transform="translate(2.254 0)" fill="#006681"/><path d="M87.453,509.221a9.723,9.723,0,0,1-5.423-1.644.6.6,0,0,1-.265-.535,5.7,5.7,0,0,1,11.376,0,.6.6,0,0,1-.265.535A9.719,9.719,0,0,1,87.453,509.221ZM83,506.771a8.568,8.568,0,0,0,8.913,0,4.5,4.5,0,0,0-8.913,0Z" transform="translate(-82.364 -496.621)" fill="#006681"/></g><path d="M4,.6H0A.6.6,0,0,1-.6,0,.6.6,0,0,1,0-.6H4a.6.6,0,0,1,.6.6A.6.6,0,0,1,4,.6Z" transform="translate(1752.713 -428.5)" fill="#006681"/><path d="M6,.6H0A.6.6,0,0,1-.6,0,.6.6,0,0,1,0-.6H6a.6.6,0,0,1,.6.6A.6.6,0,0,1,6,.6Z" transform="translate(1752.713 -424.5)" fill="#006681"/><path d="M5,.6H0A.6.6,0,0,1-.6,0,.6.6,0,0,1,0-.6H5a.6.6,0,0,1,.6.6A.6.6,0,0,1,5,.6Z" transform="translate(1752.713 -420.5)" fill="#006681"/></g><path d="M14.5,1.2A13.3,13.3,0,0,0,5.1,23.9,13.3,13.3,0,0,0,23.9,5.1a13.213,13.213,0,0,0-9.4-3.9m0-1.2A14.5,14.5,0,1,1,0,14.5,14.5,14.5,0,0,1,14.5,0Z" transform="translate(35 88)" fill="#006681"/></g></svg>