<svg xmlns="http://www.w3.org/2000/svg" width="11.889" height="13.078" viewBox="0 0 11.889 13.078"><g transform="translate(-3.901 -2.4)"><path d="M3881.814-7018.937h-5.938a1.79,1.79,0,0,1-1.788-1.788v-7.715h-.587a.6.6,0,0,1-.6-.6.6.6,0,0,1,.6-.6h2.368v-.587a1.79,1.79,0,0,1,1.788-1.788h2.375a1.791,1.791,0,0,1,1.789,1.788v.587h2.368a.6.6,0,0,1,.6.6.6.6,0,0,1-.6.6h-.588v7.715A1.79,1.79,0,0,1,3881.814-7018.937Zm-6.526-9.5v7.715a.588.588,0,0,0,.588.587h5.938a.588.588,0,0,0,.587-.587v-7.715h-1.18a.6.6,0,0,1-.6-.6v-1.187a.589.589,0,0,0-.589-.588h-2.375a.588.588,0,0,0-.588.588v1.188a.6.6,0,0,1-.6.6Z" transform="translate(-3869 7034.415)" fill="#006681"/><path d="M15,20.663a.6.6,0,0,1-.6-.6V16.5a.6.6,0,0,1,1.2,0v3.563A.6.6,0,0,1,15,20.663Z" transform="translate(-6.343 -8.155)" fill="#006681"/><path d="M21,20.663a.6.6,0,0,1-.6-.6V16.5a.6.6,0,0,1,1.2,0v3.563A.6.6,0,0,1,21,20.663Z" transform="translate(-9.968 -8.155)" fill="#006681"/><path d="M9.076,9.6H4.5a.6.6,0,0,1,0-1.2H9.076a.6.6,0,0,1,0,1.2Z" transform="translate(3.057 -3.625)" fill="#006681"/></g></svg>