<svg xmlns="http://www.w3.org/2000/svg" width="16.006" height="16.45" viewBox="0 0 16.006 16.45"><g transform="translate(-2786.997 -342.339)"><path d="M2798.3,358.789H2791.7a4.7,4.7,0,0,1-4.7-4.7v-7.052a4.7,4.7,0,0,1,4.7-4.7h6.609a4.7,4.7,0,0,1,4.7,4.7v7.052A4.7,4.7,0,0,1,2798.3,358.789Zm-6.609-15.245a3.5,3.5,0,0,0-3.494,3.494v7.052a3.5,3.5,0,0,0,3.494,3.494h6.609a3.5,3.5,0,0,0,3.493-3.494v-7.052a3.5,3.5,0,0,0-3.493-3.494Z" fill="#fff"/><path d="M2795,354.912a4.375,4.375,0,0,1-4.37-4.371,4.442,4.442,0,0,1,1.34-3.171,4.186,4.186,0,0,1,3.051-1.2,4.116,4.116,0,0,1,4.35,4.386h0A4.385,4.385,0,0,1,2795,354.912Zm-.1-7.27a2.719,2.719,0,0,0-1.9.784,2.964,2.964,0,0,0-.893,2.115,2.9,2.9,0,1,0,5.795-.016,2.68,2.68,0,0,0-2.919-2.882Z" fill="#fff"/><circle cx="1.019" cy="1.019" r="1.019" transform="translate(2798.457 345.028)" fill="#fff"/></g></svg>