<svg xmlns="http://www.w3.org/2000/svg" width="25" height="19.575" viewBox="0 0 25 19.575"><g transform="translate(-980.569 -261.399)"><g transform="translate(980.569 261.399)"><path d="M1004.73,280.974H981.408a.839.839,0,0,1-.839-.839v-17.9a.839.839,0,0,1,.839-.839h23.322a.839.839,0,0,1,.839.839v17.9A.839.839,0,0,1,1004.73,280.974ZM982.247,279.3h21.644V263.077H982.247Z" transform="translate(-980.569 -261.399)" fill="#006681"/></g><g transform="translate(980.814 268.777)"><path d="M999.719,279.948l-10.04-10.04a.81.81,0,0,0-1.142,0l-6.562,6.564-1.187-1.187,6.563-6.563a2.487,2.487,0,0,1,3.514,0l10.04,10.039Z" transform="translate(-980.788 -267.995)" fill="#006681"/></g><g transform="translate(996.09 273.296)"><path d="M1002.469,277.773l-3.827-3.827a.827.827,0,0,0-1.141,0l-1.869,1.869-1.187-1.187,1.869-1.868a2.488,2.488,0,0,1,3.515,0l3.827,3.827Z" transform="translate(-994.445 -272.034)" fill="#006681"/></g><g transform="translate(994.707 264.776)"><path d="M996.154,270.312a2.947,2.947,0,1,1,2.948-2.946A2.95,2.95,0,0,1,996.154,270.312Zm0-4.216a1.269,1.269,0,1,0,1.27,1.27A1.271,1.271,0,0,0,996.154,266.1Z" transform="translate(-993.208 -264.418)" fill="#006681"/></g></g></svg>