<svg xmlns="http://www.w3.org/2000/svg" width="14.904" height="16.984" viewBox="0 0 14.904 16.984"><g transform="translate(-786.047 -2283.105)"><path d="M11.706,2.825a4.256,4.256,0,0,1,4.381,4.107c0,2.928-3.792,7.657-3.953,7.857l-.428.53-.428-.53c-.161-.2-3.953-4.929-3.953-7.857A4.256,4.256,0,0,1,11.706,2.825Zm0,10.722c1.2-1.6,3.281-4.755,3.281-6.614a3.157,3.157,0,0,0-3.281-3.007A3.157,3.157,0,0,0,8.425,6.932C8.425,8.793,10.507,11.95,11.706,13.547Zm0-8.138a1.8,1.8,0,1,1-1.8,1.8A1.8,1.8,0,0,1,11.706,5.409Zm0,2.5a.7.7,0,1,0-.7-.7A.7.7,0,0,0,11.706,7.9Z" transform="translate(781.485 2280.28)"/><path d="M699.6,2274.089a.55.55,0,0,1-.55-.55v-7.109a.55.55,0,0,1,.276-.477l3.739-2.15.548.954-3.463,1.992v5.847l3.292-1.862v-5.193h1.1v5.514a.55.55,0,0,1-.279.479l-4.392,2.485A.549.549,0,0,1,699.6,2274.089Z" transform="translate(87 26)"/><path d="M699.867,2274.018l-.542-.958,4.113-2.327v-5.879l-3.68,2.124-.55-.953,4.505-2.6a.55.55,0,0,1,.825.476v7.152a.55.55,0,0,1-.279.479Z" transform="translate(96.412 26)"/><path d="M703.989,2274.089a.55.55,0,0,1-.245-.057l-4.98-2.471.489-.985,4.186,2.077v-5.888l-.678-.353.508-.976.974.507a.55.55,0,0,1,.3.488v7.109a.55.55,0,0,1-.55.55Z" transform="translate(92 26)"/></g></svg>