<svg xmlns="http://www.w3.org/2000/svg" width="17.661" height="20.453" viewBox="0 0 17.661 20.453"><g transform="translate(-731.066 -443.862)"><path d="M0-.75H16.161a.75.75,0,0,1,.75.75V9.279a.75.75,0,0,1-.75.75H0a.75.75,0,0,1-.75-.75V0A.75.75,0,0,1,0-.75ZM15.411.75H.75V8.529H15.411Z" transform="translate(731.816 454.286)" fill="#006681"/><path d="M742.893,455.036a.75.75,0,0,1-.75-.75v-5.022a3.9,3.9,0,0,0-7.806,0V450.5a.75.75,0,1,1-1.5,0v-1.239a5.4,5.4,0,0,1,10.806,0v5.022A.75.75,0,0,1,742.893,455.036Z" transform="translate(1.656)" fill="#006681"/><path d="M0,1.629A.75.75,0,0,1-.75.879V0A.75.75,0,0,1,0-.75.75.75,0,0,1,.75,0V.879A.75.75,0,0,1,0,1.629Z" transform="translate(739.896 460.201)" fill="#006681"/><path d="M1.406-.75A2.156,2.156,0,1,1-.75,1.406,2.158,2.158,0,0,1,1.406-.75Zm0,2.811A.656.656,0,1,0,.75,1.406.656.656,0,0,0,1.406,2.061Z" transform="translate(738.491 456.771)" fill="#006681"/></g></svg>