<svg xmlns="http://www.w3.org/2000/svg" width="31.788" height="31.788" viewBox="0 0 31.788 31.788"><g transform="translate(0.75 0.75)"><g transform="translate(0 0)"><path d="M-35.216,5.858A15.79,15.79,0,0,1-46.455,1.2,15.79,15.79,0,0,1-51.11-10.036a15.79,15.79,0,0,1,4.655-11.239A15.79,15.79,0,0,1-35.216-25.93a15.79,15.79,0,0,1,11.239,4.655,15.79,15.79,0,0,1,4.655,11.239A15.79,15.79,0,0,1-23.977,1.2,15.79,15.79,0,0,1-35.216,5.858Zm0-30.288a14.3,14.3,0,0,0-10.178,4.216A14.3,14.3,0,0,0-49.61-10.036,14.3,14.3,0,0,0-45.394.142,14.3,14.3,0,0,0-35.216,4.358,14.3,14.3,0,0,0-25.038.142a14.3,14.3,0,0,0,4.216-10.178,14.3,14.3,0,0,0-4.216-10.178A14.3,14.3,0,0,0-35.216-24.43Z" transform="translate(50.36 25.18)" fill="#006681"/></g><g transform="translate(9.439 9.25)"><g transform="translate(5.413 0)"><path d="M0-7.061a.748.748,0,0,1-.53-.22.75.75,0,0,1,0-1.061L4.833-13.7-.53-19.068a.75.75,0,0,1,0-1.061.75.75,0,0,1,1.061,0l5.893,5.893a.75.75,0,0,1,.22.53.75.75,0,0,1-.22.53L.53-7.281A.748.748,0,0,1,0-7.061Z" transform="translate(0 19.598)" fill="#006681"/></g><g transform="translate(0 5.894)"><path d="M-6.776.75H-17A.75.75,0,0,1-17.75,0,.75.75,0,0,1-17-.75H-6.776a.75.75,0,0,1,.75.75A.75.75,0,0,1-6.776.75Z" transform="translate(17)" fill="#006681"/></g></g></g></svg>