<svg xmlns="http://www.w3.org/2000/svg" width="36.538" height="21.886" viewBox="0 0 36.538 21.886"><path d="M41.658,27.293a10.941,10.941,0,0,0-1.447-5.517A12.567,12.567,0,0,0,36.231,17.8a11.618,11.618,0,0,0-5.517-1.447,10.437,10.437,0,0,0-6.6,2.261,11,11,0,0,1,3.437,5.7h-.995a10.417,10.417,0,0,0-3.165-5.155,10.406,10.406,0,0,0-3.165,5.155h-.995a10.989,10.989,0,0,1,3.437-5.7,10.444,10.444,0,0,0-6.6-2.261A11.611,11.611,0,0,0,10.546,17.8a12.549,12.549,0,0,0-3.979,3.979,11.239,11.239,0,0,0,0,11.033,12.536,12.536,0,0,0,3.979,3.979,11.6,11.6,0,0,0,5.517,1.447,10.438,10.438,0,0,0,6.6-2.261,11.4,11.4,0,0,1-3.346-5.245h.995a11.006,11.006,0,0,0,3.075,4.7,11.022,11.022,0,0,0,3.075-4.7h.995a11.426,11.426,0,0,1-3.346,5.245,10.429,10.429,0,0,0,6.6,2.261,11.6,11.6,0,0,0,5.517-1.447,12.554,12.554,0,0,0,3.979-3.979,10.943,10.943,0,0,0,1.447-5.517ZM9.914,24.67h1.718l-.9,5.245H9.643l.633-3.979L8.828,29.915H8.014V25.936l-.724,3.979H6.206l.9-5.245H8.738v3.256Zm5.064,2.171a4.289,4.289,0,0,1-.091.814c-.06.422-.122.814-.181,1.176a6.055,6.055,0,0,1-.181.814v.271h-.9v-.452a1.31,1.31,0,0,1-1.176.543.976.976,0,0,1-.724-.271,1.464,1.464,0,0,1-.271-.9,1.414,1.414,0,0,1,.452-1.176A2.574,2.574,0,0,1,13.44,27.2h.452v-.272c0-.24-.242-.362-.724-.362a5.08,5.08,0,0,0-1.176.181c.059-.24.12-.543.181-.9a3.686,3.686,0,0,1,1.266-.271q1.538,0,1.538,1.266Zm-1.266,1.176h-.271c-.6,0-.9.212-.9.633,0,.3.12.452.362.452a.612.612,0,0,0,.543-.271A1.105,1.105,0,0,0,13.712,28.016Zm4.432-2.351-.181.995a2.784,2.784,0,0,0-.814-.091c-.362,0-.543.122-.543.362a.363.363,0,0,0,.091.271l.362.181a1.338,1.338,0,0,1,.814,1.176q0,1.448-1.718,1.447a5.343,5.343,0,0,1-1.176-.091c.059-.24.12-.573.181-.995a4.9,4.9,0,0,0,.995.181c.421,0,.633-.12.633-.362a.375.375,0,0,0-.091-.271,1.156,1.156,0,0,0-.452-.271,1.217,1.217,0,0,1-.814-1.176q0-1.445,1.628-1.447a4.213,4.213,0,0,1,1.086.091Zm1.718,0H20.4l-.091,1.085h-.633a3.414,3.414,0,0,1-.091.814,2.827,2.827,0,0,1-.045.362.713.713,0,0,1-.136.362v.362a.319.319,0,0,0,.362.362.8.8,0,0,0,.362-.091l-.181.995a2.739,2.739,0,0,1-.814.091.8.8,0,0,1-.9-.9,4.241,4.241,0,0,1,.181-1.176l.452-2.894h1.085l-.09.634Zm4.07,1.447a5.7,5.7,0,0,1-.091,1.085H21.58a.873.873,0,0,0,.181.633,1.106,1.106,0,0,0,.814.271,2.4,2.4,0,0,0,1.176-.362l-.181,1.085a3.2,3.2,0,0,1-1.176.181,1.679,1.679,0,0,1-1.9-1.9,2.7,2.7,0,0,1,.543-1.809,1.638,1.638,0,0,1,1.357-.724,1.6,1.6,0,0,1,1.176.452,1.483,1.483,0,0,1,.362,1.086Zm-2.261.181h1.266v-.271l-.091-.181a.268.268,0,0,0-.091-.181.255.255,0,0,1-.181-.091h-.181q-.542,0-.724.724Zm5.065-1.628a6.738,6.738,0,0,0-.452,1.266c-.242-.059-.452.091-.633.452a17.8,17.8,0,0,0-.452,2.532H24.022l.091-.271q.36-2.53.543-3.979h1.085l-.091.633a1.156,1.156,0,0,1,.543-.543.394.394,0,0,1,.542-.09Zm3.8-.814-.181,1.085a2.253,2.253,0,0,0-.995-.271,1.213,1.213,0,0,0-1.085.543,2.318,2.318,0,0,0-.362,1.447,1.247,1.247,0,0,0,.271.9.856.856,0,0,0,.724.362,2.255,2.255,0,0,0,.995-.271l-.181,1.176a2.247,2.247,0,0,1-.995.181,1.809,1.809,0,0,1-1.447-.633,2.211,2.211,0,0,1-.543-1.628,3.5,3.5,0,0,1,.724-2.261,2.076,2.076,0,0,1,1.809-.9,4.355,4.355,0,0,1,1.266.271Zm3.256,1.99a2.841,2.841,0,0,1-.045.362,2.689,2.689,0,0,0-.045.452c-.06.3-.122.71-.181,1.221a6.389,6.389,0,0,1-.181,1.04h-.9v-.452a1.31,1.31,0,0,1-1.176.543.976.976,0,0,1-.724-.271,1.464,1.464,0,0,1-.271-.9,1.414,1.414,0,0,1,.452-1.176,2.426,2.426,0,0,1,1.447-.452h.452a.372.372,0,0,0,.091-.271c0-.24-.242-.362-.724-.362a5.08,5.08,0,0,0-1.176.181,2.931,2.931,0,0,1,.181-.9,3.686,3.686,0,0,1,1.266-.271q1.536,0,1.537,1.266Zm-1.266,1.176h-.271c-.6,0-.9.212-.9.633,0,.3.12.452.362.452a.612.612,0,0,0,.543-.271A1.105,1.105,0,0,0,32.523,28.016Zm4.069-2.351a2.409,2.409,0,0,0-.452,1.266c-.242-.059-.452.091-.633.452a18.224,18.224,0,0,0-.452,2.532H33.88l.091-.271q.358-1.977.543-3.979H35.6a2.035,2.035,0,0,1-.091.633,1.156,1.156,0,0,1,.543-.543.647.647,0,0,1,.542-.09Zm2.8-.995h1.176l-.9,5.246H38.583l.091-.362a1.2,1.2,0,0,1-.995.452,1.06,1.06,0,0,1-.995-.452,2.157,2.157,0,0,1-.452-1.266,2.782,2.782,0,0,1,.633-1.9,1.418,1.418,0,0,1,1.266-.724,1.562,1.562,0,0,1,1.085.543L39.4,24.67Zm-.452,2.8c0-.543-.213-.814-.633-.814a.763.763,0,0,0-.633.452,1.912,1.912,0,0,0-.181.995q0,.814.543.814a.783.783,0,0,0,.633-.362,1.8,1.8,0,0,0,.271-1.086Z" transform="translate(-5.12 -16.35)" fill="#fff"/></svg>