<svg xmlns="http://www.w3.org/2000/svg" width="13.6" height="13.6" viewBox="0 0 13.6 13.6"><g transform="translate(-3.075 -3.075)"><path d="M17.128,12.809l-.55-.566a.118.118,0,0,0-.088-.038h0a.113.113,0,0,0-.087.038l-3.812,3.841L11.2,14.7a.121.121,0,0,0-.175,0l-.556.556a.125.125,0,0,0,0,.178l1.75,1.75a.553.553,0,0,0,.366.178.58.58,0,0,0,.362-.172h0l4.178-4.2A.134.134,0,0,0,17.128,12.809Z" transform="translate(-3.922 -4.906)"/><path d="M16.491,11.906a.416.416,0,0,1,.306.132l.546.562a.43.43,0,0,1,.02.578l-.019.021-4.266,4.288h-.02a.8.8,0,0,1-.471.172.843.843,0,0,1-.578-.266l-1.75-1.75a.426.426,0,0,1,0-.6l.556-.556a.421.421,0,0,1,.6,0l1.175,1.175,3.6-3.622A.416.416,0,0,1,16.491,11.906Zm.306.992-.307-.316-3.9,3.927-1.476-1.476-.309.309,1.627,1.627a.287.287,0,0,0,.154.09.3.3,0,0,0,.157-.09l.045-.043Z" transform="translate(-3.922 -4.906)"/><path d="M9.875,4.25A5.623,5.623,0,1,1,5.9,5.9,5.588,5.588,0,0,1,9.875,4.25m0-.875a6.5,6.5,0,1,0,6.5,6.5,6.5,6.5,0,0,0-6.5-6.5Z" transform="translate(0 0)"/><path d="M9.875,3.075a6.8,6.8,0,1,1-6.8,6.8A6.808,6.808,0,0,1,9.875,3.075Zm0,13a6.2,6.2,0,1,0-6.2-6.2A6.207,6.207,0,0,0,9.875,16.075Zm0-12.125a5.923,5.923,0,1,1-4.19,1.735A5.887,5.887,0,0,1,9.875,3.95Zm0,11.25a5.323,5.323,0,1,0-3.766-1.559A5.291,5.291,0,0,0,9.875,15.2Z" transform="translate(0 0)"/></g></svg>