<svg xmlns="http://www.w3.org/2000/svg" width="14.071" height="14.071" viewBox="0 0 14.071 14.071"><g transform="translate(7 12)"><path d="M-1.276-2.187A4.093,4.093,0,0,1-5.364-6.276a4.093,4.093,0,0,1,4.088-4.089A4.094,4.094,0,0,1,2.813-6.276,4.093,4.093,0,0,1-1.276-2.187M6.952.218,3.543-3.192A5.7,5.7,0,0,0,4.45-6.276,5.726,5.726,0,0,0-1.276-12,5.724,5.724,0,0,0-7-6.276,5.724,5.724,0,0,0-1.276-.551a5.692,5.692,0,0,0,3.083-.906l3.408,3.41a.413.413,0,0,0,.579,0L6.952.795a.41.41,0,0,0,0-.577" fill="#fff"/></g></svg>