<svg xmlns="http://www.w3.org/2000/svg" width="18" height="15.376" viewBox="0 0 18 15.376"><g transform="translate(-119 -90.996)"><path d="M134.955,95.7h-4.5V93.041A2.048,2.048,0,0,0,128.409,91h-7.364A2.048,2.048,0,0,0,119,93.041v4.909A2.048,2.048,0,0,0,121.045,100v.855a.818.818,0,0,0,1.4.576.38.38,0,0,0,.04-.047L123.5,100h2.043v2.659a2.048,2.048,0,0,0,2.045,2.045h4.535l1.432,1.432a.818.818,0,0,0,1.4-.578V104.7A2.048,2.048,0,0,0,137,102.655V97.746a2.048,2.048,0,0,0-2.045-2.045ZM123.3,99.178a.409.409,0,0,0-.329.167l-1.1,1.5V99.587a.409.409,0,0,0-.409-.409h-.409a1.228,1.228,0,0,1-1.227-1.227V93.041a1.228,1.228,0,0,1,1.227-1.227h7.364a1.228,1.228,0,0,1,1.227,1.227V95.7h-2.045a2.026,2.026,0,0,0-1.208.4L125.1,93.281a.409.409,0,0,0-.745,0l-2.045,4.5a.409.409,0,0,0,.2.542.4.4,0,0,0,.169.037.409.409,0,0,0,.373-.24l.635-1.4h2.078l.029.063a2.022,2.022,0,0,0-.25.96v1.431Zm2.1-3.273h-1.334l.666-1.466Zm10.788,6.75a1.229,1.229,0,0,1-1.227,1.227h-.409a.409.409,0,0,0-.409.409v1.262L132.585,104a.408.408,0,0,0-.289-.12h-4.7a1.229,1.229,0,0,1-1.227-1.227V97.746a1.228,1.228,0,0,1,1.227-1.227h7.364a1.228,1.228,0,0,1,1.227,1.227Z" transform="translate(0)"/><path d="M375.5,260.227h-1.636v-.818a.409.409,0,1,0-.818,0v.818h-1.636a.409.409,0,1,0,0,.818h3.036a1.044,1.044,0,1,1-1.738.817.409.409,0,1,0-.739.351,3.632,3.632,0,0,0,.767,1.053,2.914,2.914,0,0,1-1.15.235.4.4,0,0,0-.395.409.422.422,0,0,0,.424.409,3.652,3.652,0,0,0,1.849-.5,3.734,3.734,0,0,0,1.862.5.4.4,0,0,0,.395-.409.422.422,0,0,0-.424-.409,2.839,2.839,0,0,1-1.113-.232,3.67,3.67,0,0,0,1.089-2.223h.229a.409.409,0,1,0,0-.818Z" transform="translate(-242.182 -161.458)"/></g></svg>