<svg xmlns="http://www.w3.org/2000/svg" width="31" height="23.978" viewBox="0 0 31 23.978"><g transform="translate(-714.467 -400.039)"><path d="M740.5,424.017a4.2,4.2,0,0,1-2.142-.543,1.91,1.91,0,0,1-1.067-1.592v-2.548l-15.049.05.05,2.511a1.317,1.317,0,0,1-.047.811,1.784,1.784,0,0,1-.688.766,3.831,3.831,0,0,1-2.124.544,3.445,3.445,0,0,1-1.871-.544,1.936,1.936,0,0,1-.989-1.578v-3.263a5.106,5.106,0,0,1-2.106-3.931v-3.207a4.682,4.682,0,0,1,2.208-3.976L719,400.551a.739.739,0,0,1,.695-.512h20.192a.753.753,0,0,1,.682.491l2.688,7a4.686,4.686,0,0,1,2.21,3.96V414.7a4.772,4.772,0,0,1-2.128,3.761l.022,3.421a1.913,1.913,0,0,1-1,1.58A3.37,3.37,0,0,1,740.5,424.017Zm-22.42-2.122a.869.869,0,0,0,.319.338,2.025,2.025,0,0,0,1.035.3,2.566,2.566,0,0,0,1.288-.3.512.512,0,0,0,.066-.337v-2.563l-1.707.05a5.942,5.942,0,0,1-1-.068Zm20.717-.011a.847.847,0,0,0,.337.313,2.787,2.787,0,0,0,1.366.328,2.009,2.009,0,0,0,1.028-.3.9.9,0,0,0,.331-.355l0-2.62a1.41,1.41,0,0,1-.7.145l-2.362-.005ZM719.08,408.338a3.176,3.176,0,0,0-3.109,3.157V414.7a4.178,4.178,0,0,0,1.735,2.9,2,2,0,0,0,1.168.256h21.978a3.946,3.946,0,0,0,.885-.136.7.7,0,0,1,.176-.136,3.632,3.632,0,0,0,2.049-2.883v-3.207a3.175,3.175,0,0,0-3.109-3.156Zm-.663-1.393a1.325,1.325,0,0,1,.663-.134h1.055l-.05-.183a2.784,2.784,0,0,1,.636-1.782,2.471,2.471,0,0,1,1.872-.885,2.425,2.425,0,0,1,1.861.885,2.788,2.788,0,0,1,.65,1.782v.235l15.749-.052a4.491,4.491,0,0,1,.643.056l-2.128-5.333-19.151.034Zm4.175-1.58a.846.846,0,0,0-.684.349,1.466,1.466,0,0,0-.317.913v.235l2.056-.052-.05-.183a1.474,1.474,0,0,0-.329-.913A.829.829,0,0,0,722.592,405.365Z" transform="translate(0)" fill="#006681" fill-rule="evenodd"/><path d="M719.678,411.772a3.081,3.081,0,0,1-2.858-3.258,2.925,2.925,0,0,1,2.858-2.9,2.867,2.867,0,0,1,2.86,2.9,3.06,3.06,0,0,1-2.86,3.258Zm0-4.633a1.252,1.252,0,0,0-1.352,1.377c0,1.162.442,1.728,1.352,1.728,1.117-.048,1.354-.969,1.354-1.73A1.3,1.3,0,0,0,719.678,407.139Z" transform="translate(1.861 4.407)" fill="#006681" fill-rule="evenodd"/><path d="M729.062,411.772a2.579,2.579,0,0,1-1.864-.779,3.494,3.494,0,0,1-.967-2.479,2.929,2.929,0,0,1,.861-2.049,2.859,2.859,0,0,1,2-.854,2.889,2.889,0,0,1,2.858,2.9,2.977,2.977,0,0,1-2.858,3.258Zm.029-4.633a1.368,1.368,0,0,0-1.354,1.375c0,.79.234,1.73,1.354,1.73,1,0,1.352-.894,1.352-1.73A1.334,1.334,0,0,0,729.091,407.139Z" transform="translate(9.304 4.407)" fill="#006681" fill-rule="evenodd"/><path d="M721.106,408.331a.755.755,0,0,1-.763-.761.783.783,0,0,1,.224-.546.766.766,0,0,1,.532-.219h8.435a.77.77,0,0,1,.539.219.783.783,0,0,1,.224.546.77.77,0,0,1-.224.543.76.76,0,0,1-.526.219Z" transform="translate(4.647 5.351)" fill="#006681" fill-rule="evenodd"/></g></svg>