<svg xmlns="http://www.w3.org/2000/svg" width="23.199" height="16.943" viewBox="0 0 23.199 16.943"><g transform="translate(-712.288 -422.528)"><path d="M2.146-.75H19.553a2.9,2.9,0,0,1,2.9,2.9V13.3a2.9,2.9,0,0,1-2.9,2.9H2.146a2.9,2.9,0,0,1-2.9-2.9V2.146A2.9,2.9,0,0,1,2.146-.75ZM19.553,14.693a1.4,1.4,0,0,0,1.4-1.4V2.146a1.4,1.4,0,0,0-1.4-1.4H2.146a1.4,1.4,0,0,0-1.4,1.4V13.3a1.4,1.4,0,0,0,1.4,1.4Z" transform="translate(713.038 423.278)" fill="#006681"/><g transform="translate(716.521 426.689)"><path d="M2.237.75H0A.75.75,0,0,1-.75,0,.75.75,0,0,1,0-.75H2.237a.75.75,0,0,1,.75.75A.75.75,0,0,1,2.237.75Z" fill="#006681"/><path d="M1.583.75H0A.75.75,0,0,1-.75,0,.75.75,0,0,1,0-.75H1.583a.75.75,0,0,1,.75.75A.75.75,0,0,1,1.583.75Z" transform="translate(0 4.31)" fill="#006681"/><path d="M1.583.75H0A.75.75,0,0,1-.75,0,.75.75,0,0,1,0-.75H1.583a.75.75,0,0,1,.75.75A.75.75,0,0,1,1.583.75Z" transform="translate(4.334 4.31)" fill="#006681"/><path d="M.557.75H0A.75.75,0,0,1-.75,0,.75.75,0,0,1,0-.75H.557a.75.75,0,0,1,.75.75A.75.75,0,0,1,.557.75Z" transform="translate(0 8.621)" fill="#006681"/><path d="M1.583.75H0A.75.75,0,0,1-.75,0,.75.75,0,0,1,0-.75H1.583a.75.75,0,0,1,.75.75A.75.75,0,0,1,1.583.75Z" transform="translate(3.429 8.621)" fill="#006681"/><path d="M6.856.75H0A.75.75,0,0,1-.75,0,.75.75,0,0,1,0-.75H6.856a.75.75,0,0,1,.75.75A.75.75,0,0,1,6.856.75Z" transform="translate(7.877 8.621)" fill="#006681"/><path d="M1.583.75H0A.75.75,0,0,1-.75,0,.75.75,0,0,1,0-.75H1.583a.75.75,0,0,1,.75.75A.75.75,0,0,1,1.583.75Z" transform="translate(8.669 4.31)" fill="#006681"/><path d="M1.583.75H0A.75.75,0,0,1-.75,0,.75.75,0,0,1,0-.75H1.583a.75.75,0,0,1,.75.75A.75.75,0,0,1,1.583.75Z" transform="translate(13.003 4.31)" fill="#006681"/><path d="M2.237.75H0A.75.75,0,0,1-.75,0,.75.75,0,0,1,0-.75H2.237a.75.75,0,0,1,.75.75A.75.75,0,0,1,2.237.75Z" transform="translate(12.35)" fill="#006681"/><path d="M2.237.75H0A.75.75,0,0,1-.75,0,.75.75,0,0,1,0-.75H2.237a.75.75,0,0,1,.75.75A.75.75,0,0,1,2.237.75Z" transform="translate(0 1.799)" fill="#006681"/></g></g></svg>