<svg xmlns="http://www.w3.org/2000/svg" width="27.197" height="18.005" viewBox="0 0 27.197 18.005"><g transform="translate(-786.25 -553.25)"><g transform="translate(787 554)"><path d="M4.475-.75A5.225,5.225,0,1,1-.75,4.475,5.23,5.23,0,0,1,4.475-.75Zm0,8.949A3.725,3.725,0,1,0,.75,4.475,3.729,3.729,0,0,0,4.475,8.2Z" transform="translate(3.558 0)" fill="#006681"/><path d="M191.075,510.6a.75.75,0,0,1-.748-.7,7.3,7.3,0,0,0-14.568,0,.75.75,0,0,1-1.5-.091,8.8,8.8,0,0,1,17.563,0,.75.75,0,0,1-.7.794Z" transform="translate(-175.01 -493.342)" fill="#006681"/><path d="M3.323-.75A4.073,4.073,0,1,1-.75,3.323,4.077,4.077,0,0,1,3.323-.75Zm0,6.645A2.573,2.573,0,1,0,.75,3.323,2.575,2.575,0,0,0,3.323,5.9Z" transform="translate(16.41 0)" fill="#006681"/><path d="M200.416,506.052a.75.75,0,0,1-.748-.7,5.225,5.225,0,0,0-9.061-3.218.75.75,0,1,1-1.1-1.016,6.725,6.725,0,0,1,11.662,4.144.75.75,0,0,1-.7.794Z" transform="translate(-174.72 -493.047)" fill="#006681"/></g></g></svg>