<svg xmlns="http://www.w3.org/2000/svg" width="14.536" height="16.869" viewBox="0 0 14.536 16.869"><g transform="translate(-1740.25 430.75)"><g transform="translate(1741 -430)"><path d="M3.631-.75A4.381,4.381,0,1,1-.75,3.631,4.386,4.386,0,0,1,3.631-.75Zm0,7.262A2.881,2.881,0,1,0,.75,3.631,2.884,2.884,0,0,0,3.631,6.512Z" transform="translate(2.887 0)" fill="#fff"/><path d="M88.882,511.148a12.434,12.434,0,0,1-6.935-2.1.75.75,0,0,1-.332-.669,7.28,7.28,0,0,1,14.533,0,.75.75,0,0,1-.332.669A12.429,12.429,0,0,1,88.882,511.148Zm-5.728-3.11a10.992,10.992,0,0,0,11.454,0,5.781,5.781,0,0,0-11.454,0Z" transform="translate(-82.364 -495.029)" fill="#fff"/></g></g></svg>