<svg xmlns="http://www.w3.org/2000/svg" width="19.285" height="20.819" viewBox="0 0 19.285 20.819"><g transform="translate(-126.204 -503.922)"><path d="M1.287-.75H16.5a2.04,2.04,0,0,1,2.038,2.038V15.62A2.04,2.04,0,0,1,16.5,17.658H1.287A2.04,2.04,0,0,1-.75,15.62V1.288A2.04,2.04,0,0,1,1.287-.75ZM16.5,16.158a.538.538,0,0,0,.538-.538V1.288A.538.538,0,0,0,16.5.75H1.287a.538.538,0,0,0-.538.538V15.62a.538.538,0,0,0,.538.538Z" transform="translate(126.954 507.083)" fill="#006681"/><path d="M17.785.75H0A.75.75,0,0,1-.75,0,.75.75,0,0,1,0-.75H17.785a.75.75,0,0,1,.75.75A.75.75,0,0,1,17.785.75Z" transform="translate(126.954 511.903)" fill="#006681"/><path d="M1.747.75H0A.75.75,0,0,1-.75,0,.75.75,0,0,1,0-.75H1.747A.75.75,0,0,1,2.5,0,.75.75,0,0,1,1.747.75Z" transform="translate(130.121 515.813)" fill="#006681"/><path d="M1.747.75H0A.75.75,0,0,1-.75,0,.75.75,0,0,1,0-.75H1.747A.75.75,0,0,1,2.5,0,.75.75,0,0,1,1.747.75Z" transform="translate(134.973 515.813)" fill="#006681"/><path d="M0,3.161a.75.75,0,0,1-.75-.75V0A.75.75,0,0,1,0-.75.75.75,0,0,1,.75,0V2.411A.75.75,0,0,1,0,3.161Z" transform="translate(135.847 504.672)" fill="#006681"/><path d="M0,3.161a.75.75,0,0,1-.75-.75V0A.75.75,0,0,1,0-.75.75.75,0,0,1,.75,0V2.411A.75.75,0,0,1,0,3.161Z" transform="translate(141.185 504.672)" fill="#006681"/><path d="M0,3.161a.75.75,0,0,1-.75-.75V0A.75.75,0,0,1,0-.75.75.75,0,0,1,.75,0V2.411A.75.75,0,0,1,0,3.161Z" transform="translate(130.496 504.672)" fill="#006681"/><path d="M1.747.75H0A.75.75,0,0,1-.75,0,.75.75,0,0,1,0-.75H1.747A.75.75,0,0,1,2.5,0,.75.75,0,0,1,1.747.75Z" transform="translate(139.814 515.813)" fill="#006681"/><path d="M1.747.75H0A.75.75,0,0,1-.75,0,.75.75,0,0,1,0-.75H1.747A.75.75,0,0,1,2.5,0,.75.75,0,0,1,1.747.75Z" transform="translate(130.121 519.375)" fill="#006681"/><path d="M1.747.75H0A.75.75,0,0,1-.75,0,.75.75,0,0,1,0-.75H1.747A.75.75,0,0,1,2.5,0,.75.75,0,0,1,1.747.75Z" transform="translate(134.973 519.375)" fill="#006681"/><path d="M1.747.75H0A.75.75,0,0,1-.75,0,.75.75,0,0,1,0-.75H1.747A.75.75,0,0,1,2.5,0,.75.75,0,0,1,1.747.75Z" transform="translate(139.814 519.375)" fill="#006681"/></g></svg>