<svg xmlns="http://www.w3.org/2000/svg" width="20.986" height="16.774" viewBox="0 0 20.986 16.774"><g transform="translate(0.55 0.55)"><path d="M697.894,506.682H685.106a.55.55,0,0,1-.55-.55v-5.643a.55.55,0,0,1,1.1,0v5.093h11.688v-5.093a.55.55,0,0,1,1.1,0v5.643A.55.55,0,0,1,697.894,506.682Z" transform="translate(-681.557 -495.156)" fill="#006681"/><path d="M701.923,501.534a.547.547,0,0,1-.251-.061l-9.692-4.977-9.692,4.977a.55.55,0,1,1-.5-.979l9.943-5.106a.55.55,0,0,1,.5,0l9.943,5.106a.55.55,0,0,1-.252,1.039Z" transform="translate(-682.038 -495.878)" fill="#006681"/><path d="M0-.55H2.577a.55.55,0,0,1,.55.55V3.426a.55.55,0,0,1-.55.55H0a.55.55,0,0,1-.55-.55V0A.55.55,0,0,1,0-.55ZM2.027.55H.55V2.876H2.027Z" transform="translate(8.654 7.55)" fill="#006681"/><path d="M17.077.55H0A.55.55,0,0,1-.55,0,.55.55,0,0,1,0-.55H17.077a.55.55,0,0,1,.55.55A.55.55,0,0,1,17.077.55Z" transform="translate(1.404 13.288)" fill="#006681"/><path d="M8.54.55H0A.55.55,0,0,1-.55,0,.55.55,0,0,1,0-.55H8.54A.55.55,0,0,1,9.09,0,.55.55,0,0,1,8.54.55Z" transform="translate(5.673 5.106)" fill="#006681"/><path d="M0,1.409A.55.55,0,0,1-.55.859V0A.55.55,0,0,1,0-.55.55.55,0,0,1,.55,0V.859A.55.55,0,0,1,0,1.409Z" transform="translate(3.549 14.815)" fill="#006681"/><path d="M0,1.409A.55.55,0,0,1-.55.859V0A.55.55,0,0,1,0-.55.55.55,0,0,1,.55,0V.859A.55.55,0,0,1,0,1.409Z" transform="translate(16.337 14.815)" fill="#006681"/><path d="M0,1.409A.55.55,0,0,1-.55.859V0A.55.55,0,0,1,0-.55.55.55,0,0,1,.55,0V.859A.55.55,0,0,1,0,1.409Z" transform="translate(12.074 14.815)" fill="#006681"/><path d="M0,1.409A.55.55,0,0,1-.55.859V0A.55.55,0,0,1,0-.55.55.55,0,0,1,.55,0V.859A.55.55,0,0,1,0,1.409Z" transform="translate(7.811 14.815)" fill="#006681"/></g></svg>