<svg xmlns="http://www.w3.org/2000/svg" width="48.457" height="15.664" viewBox="0 0 48.457 15.664"><path d="M10.734,20.614a1.577,1.577,0,0,0-1.775-1.278H2.617l-.047.307c4.353,1.113,7.927,3.479,9.536,7.951ZM12.508,29.7l-.4-2.106a9.5,9.5,0,0,0-5.112-5.159L10.189,34.5H14.33l6.176-15.167H16.341L12.508,29.7Zm11.05,4.826,2.459-15.189H22.091L19.63,34.526Zm10.717-15.45c-3.88,0-6.6,2.059-6.625,5.015-.024,2.178,1.94,3.384,3.43,4.118,1.539.733,2.035,1.23,2.035,1.892,0,1.018-1.23,1.468-2.342,1.468a7.444,7.444,0,0,1-3.691-.781l-.521-.26-.545,3.407a11.444,11.444,0,0,0,4.377.805c4.117.024,6.792-2.035,6.838-5.181,0-1.728-1.064-3.029-3.313-4.118-1.371-.685-2.2-1.183-2.2-1.892,0-.638.709-1.3,2.247-1.3a6.526,6.526,0,0,1,2.934.569l.355.188.543-3.289a9.761,9.761,0,0,0-3.525-.639Zm10.554.261a1.943,1.943,0,0,0-2.059,1.278L36.949,34.526h4.117c.664-1.868.83-2.272.83-2.272h5.015s.119.521.472,2.272h3.644l-3.17-15.189H44.829Zm-1.823,9.8s.331-.876,1.563-4.236c-.024.024.331-.876.521-1.444l.283,1.3c.733,3.62.9,4.377.9,4.377H43.006Z" transform="translate(-2.571 -19.076)" fill="#fff"/></svg>