<svg xmlns="http://www.w3.org/2000/svg" width="18.464" height="21.5" viewBox="0 0 18.464 21.5"><g transform="translate(-1740.25 430.75)"><g transform="translate(1741 -430)"><path d="M4.725-.75A5.475,5.475,0,1,1-.75,4.725,5.481,5.481,0,0,1,4.725-.75Zm0,9.45A3.975,3.975,0,1,0,.75,4.725,3.98,3.98,0,0,0,4.725,8.7Z" transform="translate(3.757 0)" fill="#006681"/><path d="M90.846,513.591a15.955,15.955,0,0,1-8.9-2.7.75.75,0,0,1-.332-.669,9.248,9.248,0,0,1,18.461,0,.75.75,0,0,1-.332.669A15.949,15.949,0,0,1,90.846,513.591Zm-7.7-3.705a14.529,14.529,0,0,0,15.391,0,7.748,7.748,0,0,0-15.391,0Z" transform="translate(-82.364 -492.841)" fill="#006681"/></g></g></svg>