<svg xmlns="http://www.w3.org/2000/svg" width="22.138" height="13.383" viewBox="0 0 22.138 13.383"><g transform="translate(0.55 0.55)"><path d="M0-.55H17.326a.55.55,0,0,1,.55.55V9.97a.55.55,0,0,1-.55.55H0a.55.55,0,0,1-.55-.55V0A.55.55,0,0,1,0-.55ZM16.776.55H.55V9.42H16.776Z" transform="translate(1.856 0)" fill="#006681"/><path d="M0-.55H3.49A.55.55,0,0,1,4.04,0V3.481a.55.55,0,0,1-.55.55H0a.55.55,0,0,1-.55-.55V0A.55.55,0,0,1,0-.55ZM2.94.55H.55V2.931H2.94Z" transform="translate(4.771 2.641)" fill="#006681"/><path d="M0,10.52a.55.55,0,0,1-.55-.55V0A.55.55,0,0,1,0-.55.55.55,0,0,1,.55,0V9.97A.55.55,0,0,1,0,10.52Z" transform="translate(15.323 0)" fill="#006681"/><path d="M661.1,499.833a.55.55,0,0,1,.482.815l-3.706,6.744a.55.55,0,0,1-1.011-.114l-1.1-3.849a.55.55,0,0,1,.245-.622l4.8-2.9A.549.549,0,0,1,661.1,499.833Zm-3.544,5.857,2.078-3.781-2.694,1.623Z" transform="translate(-645.782 -497.157)" fill="#006681"/><path d="M21.038.55H0A.55.55,0,0,1-.55,0,.55.55,0,0,1,0-.55H21.038a.55.55,0,0,1,.55.55A.55.55,0,0,1,21.038.55Z" transform="translate(0 12.283)" fill="#006681"/></g></svg>