<svg xmlns="http://www.w3.org/2000/svg" width="27.201" height="20.346" viewBox="0 0 27.201 20.346"><g transform="translate(0.75 0.75)"><path d="M362.225,446.146h-7.863a2.417,2.417,0,0,1-2.414-2.414V430.566a2.417,2.417,0,0,1,2.414-2.415h14.021a2.418,2.418,0,0,1,2.415,2.415V433.6a.75.75,0,0,1-1.5,0v-3.037a.916.916,0,0,0-.915-.915H354.362a.916.916,0,0,0-.914.915v13.165a.915.915,0,0,0,.914.914h7.863a.75.75,0,0,1,0,1.5Z" transform="translate(-352.698 -426.55)" fill="#006681"/><path d="M17.35.75H0A.75.75,0,0,1-.75,0,.75.75,0,0,1,0-.75H17.35A.75.75,0,0,1,18.1,0,.75.75,0,0,1,17.35.75Z" transform="translate(0 7.054)" fill="#006681"/><path d="M1.7.75H0A.75.75,0,0,1-.75,0,.75.75,0,0,1,0-.75H1.7a.75.75,0,0,1,.75.75A.75.75,0,0,1,1.7.75Z" transform="translate(3.089 10.867)" fill="#006681"/><path d="M1.7.75H0A.75.75,0,0,1-.75,0,.75.75,0,0,1,0-.75H1.7a.75.75,0,0,1,.75.75A.75.75,0,0,1,1.7.75Z" transform="translate(7.823 10.867)" fill="#006681"/><path d="M0,3.1a.75.75,0,0,1-.75-.75V0A.75.75,0,0,1,0-.75.75.75,0,0,1,.75,0V2.352A.75.75,0,0,1,0,3.1Z" transform="translate(8.675 0)" fill="#006681"/><path d="M0,3.1a.75.75,0,0,1-.75-.75V0A.75.75,0,0,1,0-.75.75.75,0,0,1,.75,0V2.352A.75.75,0,0,1,0,3.1Z" transform="translate(13.883 0)" fill="#006681"/><path d="M0,3.1a.75.75,0,0,1-.75-.75V0A.75.75,0,0,1,0-.75.75.75,0,0,1,.75,0V2.352A.75.75,0,0,1,0,3.1Z" transform="translate(3.456 0)" fill="#006681"/><path d="M1.7.75H0A.75.75,0,0,1-.75,0,.75.75,0,0,1,0-.75H1.7a.75.75,0,0,1,.75.75A.75.75,0,0,1,1.7.75Z" transform="translate(12.545 10.867)" fill="#006681"/><path d="M1.7.75H0A.75.75,0,0,1-.75,0,.75.75,0,0,1,0-.75H1.7a.75.75,0,0,1,.75.75A.75.75,0,0,1,1.7.75Z" transform="translate(3.089 14.342)" fill="#006681"/><path d="M1.7.75H0A.75.75,0,0,1-.75,0,.75.75,0,0,1,0-.75H1.7a.75.75,0,0,1,.75.75A.75.75,0,0,1,1.7.75Z" transform="translate(7.823 14.342)" fill="#006681"/><g transform="translate(11.93 4.813)"><path d="M0-.75H10.7a.75.75,0,0,1,.75.75V3.117a.75.75,0,0,1-.75.75H0a.75.75,0,0,1-.75-.75V0A.75.75,0,0,1,0-.75ZM9.948.75H.75V2.367h9.2Z" transform="translate(2.013 9.555) rotate(-45)" fill="#006681"/><path d="M2.2,2.954a.748.748,0,0,1-.53-.22L-.53.53A.75.75,0,0,1-.53-.53.75.75,0,0,1,.53-.53l2.2,2.2a.75.75,0,0,1-.53,1.28Z" transform="translate(11.567)" fill="#006681"/><path d="M361.924,442.756a.75.75,0,0,1-.747-.819l.224-2.428a.75.75,0,0,1,1.494.138l-.141,1.53,1.53-.141a.75.75,0,0,1,.138,1.494l-2.428.224Q361.959,442.756,361.924,442.756Z" transform="translate(-361.924 -428.234)" fill="#006681"/></g></g></svg>