<svg xmlns="http://www.w3.org/2000/svg" width="23.578" height="22.5" viewBox="0 0 23.578 22.5"><g transform="translate(-747.631 -397.776)"><path d="M766.26,413.9h-15.6a.75.75,0,0,1-.75-.75v-3.336a4.053,4.053,0,0,1,4.048-4.048h9a4.053,4.053,0,0,1,4.048,4.048v3.336A.75.75,0,0,1,766.26,413.9Zm-14.847-1.5h14.1v-2.586a2.551,2.551,0,0,0-2.548-2.548h-9a2.551,2.551,0,0,0-2.548,2.548Z" transform="translate(0.94 3.291)" fill="#006681"/><path d="M748.381,410.464h22.078a.75.75,0,0,1,.75.75,3.523,3.523,0,0,1-1.42,2.769,5.163,5.163,0,0,1-3.212,1.067H752.262a5.16,5.16,0,0,1-3.211-1.067,3.523,3.523,0,0,1-1.42-2.769A.75.75,0,0,1,748.381,410.464Zm21.16,1.5H749.3a2.352,2.352,0,0,0,.686.845,3.658,3.658,0,0,0,2.278.741h14.314a3.661,3.661,0,0,0,2.279-.741A2.352,2.352,0,0,0,769.541,411.964Z" transform="translate(0 5.226)" fill="#006681"/><path d="M756.025,401.933h.724A2.074,2.074,0,0,1,758.821,404v4.09a.75.75,0,0,1-.75.75H754.7a.75.75,0,0,1-.75-.75V404A2.075,2.075,0,0,1,756.025,401.933Zm1.3,5.412V404a.572.572,0,0,0-.572-.571h-.724a.573.573,0,0,0-.573.571v3.34Z" transform="translate(3.015 1.712)" fill="#006681"/><path d="M756.2,397.776a.75.75,0,0,1,.727.564,11.66,11.66,0,0,0,1.4,3.056,2.444,2.444,0,0,1,.078,2.477,2.379,2.379,0,0,1-2.049,1.27h-.077c-.074,0-.124,0-.142-.005a.749.749,0,0,1-.143-.026l-.03-.008-.011,0a2.824,2.824,0,0,1-1.861-3.341,16.358,16.358,0,0,1,1.452-3.6A.75.75,0,0,1,756.2,397.776Zm.122,5.868a.893.893,0,0,0,.761-.481.96.96,0,0,0-.03-.973,16.108,16.108,0,0,1-.945-1.739,9.983,9.983,0,0,0-.552,1.636A1.329,1.329,0,0,0,756.321,403.644Z" transform="translate(3.043)" fill="#006681"/></g></svg>