<svg xmlns="http://www.w3.org/2000/svg" width="30.597" height="25.302" viewBox="0 0 30.597 25.302"><path d="M18.826.9h0a2.927,2.927,0,0,1,.745.1,3.142,3.142,0,0,1,1.924,1.536,5.54,5.54,0,0,1,.388,4.191A6.118,6.118,0,0,1,20.3,9.486a3.758,3.758,0,0,1-2.573,1.148,2.927,2.927,0,0,1-.744-.1A3.141,3.141,0,0,1,15.059,9a5.54,5.54,0,0,1-.389-4.192A6.119,6.119,0,0,1,16.253,2.05,3.758,3.758,0,0,1,18.826.9Zm-1.1,8.234c1.108,0,2.273-1.206,2.709-2.805a4.1,4.1,0,0,0-.24-3.047,1.7,1.7,0,0,0-1.007-.835,1.426,1.426,0,0,0-.363-.047c-1.108,0-2.272,1.206-2.708,2.805a4.1,4.1,0,0,0,.241,3.047,1.7,1.7,0,0,0,1.006.835A1.426,1.426,0,0,0,17.727,9.135ZM8.186.9h0A3.759,3.759,0,0,1,10.759,2.05a6.118,6.118,0,0,1,1.583,2.762A5.54,5.54,0,0,1,11.953,9a3.141,3.141,0,0,1-1.924,1.535,2.925,2.925,0,0,1-.745.1A3.758,3.758,0,0,1,6.712,9.486,6.119,6.119,0,0,1,5.129,6.724a5.54,5.54,0,0,1,.389-4.192A3.141,3.141,0,0,1,7.442,1,2.927,2.927,0,0,1,8.186.9Zm1.1,8.234a1.424,1.424,0,0,0,.363-.047,1.7,1.7,0,0,0,1.006-.835,4.1,4.1,0,0,0,.241-3.047c-.436-1.6-1.6-2.805-2.709-2.805a1.426,1.426,0,0,0-.363.047,1.7,1.7,0,0,0-1.006.835,4.1,4.1,0,0,0-.241,3.047C7.013,7.929,8.177,9.135,9.285,9.135ZM1.394,8.017h0a3.729,3.729,0,0,1,2.367.911A4.768,4.768,0,0,1,5.238,11.2a4.231,4.231,0,0,1-.306,3.314A3.092,3.092,0,0,1,2.22,16.1a3.729,3.729,0,0,1-2.367-.911,4.768,4.768,0,0,1-1.477-2.269,4.231,4.231,0,0,1,.306-3.314A3.092,3.092,0,0,1,1.394,8.017ZM2.22,14.6a1.645,1.645,0,0,0,.382-.045,1.623,1.623,0,0,0,1.031-.8A2.731,2.731,0,0,0,3.8,11.627a2.765,2.765,0,0,0-2.408-2.11h0a1.645,1.645,0,0,0-.382.045,1.623,1.623,0,0,0-1.031.8,2.731,2.731,0,0,0-.169,2.134A2.764,2.764,0,0,0,2.22,14.6ZM25.553,8.017a3.18,3.18,0,0,1,.731.086,3.118,3.118,0,0,1,1.982,1.508,4.231,4.231,0,0,1,.306,3.314,4.77,4.77,0,0,1-1.477,2.269,3.729,3.729,0,0,1-2.367.911,3.092,3.092,0,0,1-2.713-1.594,4.231,4.231,0,0,1-.306-3.314,4.77,4.77,0,0,1,1.477-2.269A3.729,3.729,0,0,1,25.553,8.017ZM24.728,14.6a2.765,2.765,0,0,0,2.408-2.111,2.731,2.731,0,0,0-.169-2.134,1.623,1.623,0,0,0-1.031-.8,1.646,1.646,0,0,0-.382-.045,2.765,2.765,0,0,0-2.408,2.111,2.731,2.731,0,0,0,.169,2.134,1.623,1.623,0,0,0,1.031.8A1.645,1.645,0,0,0,24.728,14.6ZM13.441,11.529c2.1,0,4.72,1.455,7.018,3.892a16.346,16.346,0,0,1,2.557,3.521,8.1,8.1,0,0,1,1.055,3.642,3.288,3.288,0,0,1-1.269,2.7,5.128,5.128,0,0,1-3.173.919,11.222,11.222,0,0,1-3.65-.732,8.243,8.243,0,0,0-2.539-.559,8.041,8.041,0,0,0-2.511.554,11.273,11.273,0,0,1-3.678.736,5.128,5.128,0,0,1-3.173-.919,3.288,3.288,0,0,1-1.269-2.7,8.1,8.1,0,0,1,1.055-3.642,16.346,16.346,0,0,1,2.557-3.521C8.721,12.984,11.345,11.529,13.441,11.529ZM19.63,24.7c2.56,0,2.942-1.328,2.942-2.119,0-1.662-1.257-4.07-3.2-6.133-1.99-2.111-4.261-3.422-5.927-3.422S9.5,14.34,7.514,16.451c-1.946,2.064-3.2,4.471-3.2,6.133,0,.791.382,2.119,2.942,2.119a9.91,9.91,0,0,0,3.207-.661,9.414,9.414,0,0,1,2.981-.63,9.5,9.5,0,0,1,3.008.634A9.863,9.863,0,0,0,19.63,24.7Z" transform="translate(1.825 -0.901)" fill="#006681"/></svg>