<svg xmlns="http://www.w3.org/2000/svg" width="20.913" height="16.432" viewBox="0 0 20.913 16.432"><g transform="translate(15.6 11.7)"><path d="M3.82,2.865V-6.1a7,7,0,0,1-.8.769q-3.13,2.4-4.973,3.944-.594.5-.968.782a5.255,5.255,0,0,1-1.008.566,2.937,2.937,0,0,1-1.2.286h-.024a2.924,2.924,0,0,1-1.2-.286A5.232,5.232,0,0,1-7.36-.6c-.25-.185-.571-.447-.97-.782Q-10.173-2.923-13.3-5.328a6.908,6.908,0,0,1-.805-.769V2.865A.361.361,0,0,0-14,3.127a.354.354,0,0,0,.263.111H3.446a.378.378,0,0,0,.373-.373M3.82-9.4v-.288c0-.034,0-.085-.006-.152a.321.321,0,0,0-.035-.144l-.063-.106a.233.233,0,0,0-.106-.088.434.434,0,0,0-.163-.029H-13.733a.355.355,0,0,0-.263.112.359.359,0,0,0-.111.263A4.084,4.084,0,0,0-12.39-6.519q2.252,1.776,4.678,3.7c.047.039.184.154.408.345s.406.336.538.438.3.224.519.367a3.21,3.21,0,0,0,.59.321,1.383,1.383,0,0,0,.5.1h.024a1.393,1.393,0,0,0,.5-.1,3.244,3.244,0,0,0,.589-.321c.213-.143.387-.266.52-.367s.311-.246.535-.438l.408-.345Q-.149-4.744,2.1-6.519A5.472,5.472,0,0,0,3.277-7.867,2.917,2.917,0,0,0,3.82-9.4m1.494-.432v12.7a1.8,1.8,0,0,1-.548,1.318,1.8,1.8,0,0,1-1.32.549H-13.733a1.8,1.8,0,0,1-1.318-.549A1.794,1.794,0,0,1-15.6,2.865v-12.7a1.8,1.8,0,0,1,.549-1.32,1.8,1.8,0,0,1,1.318-.549H3.446a1.8,1.8,0,0,1,1.32.549,1.8,1.8,0,0,1,.548,1.32" transform="translate(0)" fill="#006681"/></g></svg>