<svg xmlns="http://www.w3.org/2000/svg" width="27.592" height="24.358" viewBox="0 0 27.592 24.358"><g transform="translate(0.6 0.599)"><path d="M366.574,495.3a.6.6,0,0,1,.535.329l8.961,17.722a.6.6,0,0,1-.535.871H357.612a.6.6,0,0,1-.535-.871l8.962-17.722A.6.6,0,0,1,366.574,495.3Zm7.986,17.722-7.986-15.793-7.986,15.793Z" transform="translate(-357.612 -490.466)" fill="#006681"/><path d="M376.724,499.357a.6.6,0,0,1,.535.329l6.852,13.551a.6.6,0,0,1-.535.871h-8.469a.6.6,0,0,1-.535-.329l-2.618-5.177a.6.6,0,0,1,0-.542l4.235-8.374A.6.6,0,0,1,376.724,499.357Zm5.876,13.551-5.876-11.621-3.562,7.044,2.314,4.577Z" transform="translate(-357.185 -490.349)" fill="#006681"/><path d="M364.134,508.546h-.008a1.3,1.3,0,0,1-1.138-.633l-1.645-2.835a.6.6,0,0,1,1.038-.6l1.645,2.835a.143.143,0,0,0,.107.035h0a.146.146,0,0,0,.108-.034l1.584-2.663a1.317,1.317,0,0,1,1.2-.62,1.3,1.3,0,0,1,1.125.711.192.192,0,0,0,.215,0l1.21-2.117a.6.6,0,0,1,1.042.6l-1.21,2.117a1.312,1.312,0,0,1-1.2.638,1.294,1.294,0,0,1-1.138-.713.171.171,0,0,0-.118-.031.136.136,0,0,0-.1.035l-1.584,2.663A1.318,1.318,0,0,1,364.134,508.546Z" transform="translate(-357.49 -490.264)" fill="#006681"/><path d="M376.3,508.837h-.008a1.3,1.3,0,0,1-1.138-.632l-1.645-2.835a.6.6,0,1,1,1.038-.6l1.645,2.835a.154.154,0,0,0,.108.034.146.146,0,0,0,.108-.034l1.584-2.662a1.34,1.34,0,0,1,1.373-.6.6.6,0,1,1-.2,1.184.172.172,0,0,0-.147.031l-1.584,2.663A1.319,1.319,0,0,1,376.3,508.837Z" transform="translate(-357.14 -490.207)" fill="#006681"/><path d="M381.413,496.528a2.077,2.077,0,0,1-1.473-.609l-.059-.059a.883.883,0,0,0-1.249,0,2.087,2.087,0,0,1-2.947,0l-.007-.007-.028-.029a.886.886,0,0,0-1.247,0l-.018.019a2.083,2.083,0,0,1-2.947,0l-.039-.039a.884.884,0,0,0-1.249,0,.6.6,0,1,1-.849-.849,2.086,2.086,0,0,1,2.946,0l.039.039a.883.883,0,0,0,1.249,0l.019-.019a2.088,2.088,0,0,1,2.948,0l.007.007.028.029a.886.886,0,0,0,1.247,0,2.083,2.083,0,0,1,2.946,0l.059.059a.886.886,0,0,0,1.25,0,.6.6,0,0,1,.848.849A2.08,2.08,0,0,1,381.413,496.528Z" transform="translate(-357.264 -490.493)" fill="#006681"/><path d="M372.911,492.178a2.07,2.07,0,0,1-1.473-.61l-.059-.059a.886.886,0,0,0-1.25,0,2.086,2.086,0,0,1-2.946,0l-.033-.033a.884.884,0,0,0-1.249,0l-.02.02a.6.6,0,0,1-.849-.849l.02-.02a2.086,2.086,0,0,1,2.946,0l.033.033a.884.884,0,0,0,1.249,0,2.087,2.087,0,0,1,2.947,0l.059.059a.883.883,0,0,0,1.249,0,.6.6,0,0,1,.849.849A2.07,2.07,0,0,1,372.911,492.178Z" transform="translate(-357.387 -490.618)" fill="#006681"/><path d="M361.706,496.041a2.077,2.077,0,0,1-1.473-.609l-.059-.059a.884.884,0,0,0-1.249,0,.6.6,0,0,1-.849-.849,2.086,2.086,0,0,1,2.946,0l.059.059a.886.886,0,0,0,1.25,0,.6.6,0,0,1,.848.849A2.08,2.08,0,0,1,361.706,496.041Z" transform="translate(-357.587 -490.506)" fill="#006681"/></g></svg>