<svg xmlns="http://www.w3.org/2000/svg" width="15" height="12.19" viewBox="0 0 15 12.19"><g transform="translate(12.765 1.229)"><path d="M2.235.215A6.2,6.2,0,0,1,.468.7,3.078,3.078,0,0,0,1.82-1,6.172,6.172,0,0,1-.135-.256a3.068,3.068,0,0,0-2.246-.973A3.077,3.077,0,0,0-5.457,1.85a3.11,3.11,0,0,0,.079.7A8.74,8.74,0,0,1-11.722-.666,3.073,3.073,0,0,0-12.136.883a3.079,3.079,0,0,0,1.368,2.562,3.112,3.112,0,0,1-1.395-.385V3.1a3.077,3.077,0,0,0,2.47,3.016,2.99,2.99,0,0,1-.812.109,3.024,3.024,0,0,1-.578-.055A3.076,3.076,0,0,0-8.209,8.3a6.179,6.179,0,0,1-3.823,1.318,6.286,6.286,0,0,1-.733-.042,8.73,8.73,0,0,0,4.717,1.381A8.7,8.7,0,0,0,.707,2.206c0-.132,0-.267-.008-.4A6.241,6.241,0,0,0,2.235.215" transform="translate(0 0)" fill="#fff"/></g></svg>