<svg xmlns="http://www.w3.org/2000/svg" width="18.694" height="16.418" viewBox="0 0 18.694 16.418"><g transform="translate(0.55 0.55)"><path d="M0,13.841a.548.548,0,0,1-.328-.109.55.55,0,0,1-.114-.769L9.433-.328A.55.55,0,0,1,10.2-.441a.55.55,0,0,1,.113.769L.441,13.619A.549.549,0,0,1,0,13.841Z" transform="translate(0.793 0)" fill="#006681"/><path d="M9.874,13.841a.549.549,0,0,1-.442-.222L-.441.328A.55.55,0,0,1-.328-.441a.55.55,0,0,1,.769.114l9.874,13.291a.55.55,0,0,1-.441.878Z" transform="translate(6.927 0)" fill="#006681"/><path d="M0,5.283a.55.55,0,0,1-.55-.55V0A.55.55,0,0,1,0-.55.55.55,0,0,1,.55,0V4.733A.55.55,0,0,1,0,5.283Z" transform="translate(0 10.585)" fill="#006681"/><path d="M0,5.283a.55.55,0,0,1-.55-.55V0A.55.55,0,0,1,0-.55.55.55,0,0,1,.55,0V4.733A.55.55,0,0,1,0,5.283Z" transform="translate(17.594 10.585)" fill="#006681"/><path d="M628.417,509.36H617.291a.55.55,0,0,1-.55-.55v-3.6a.55.55,0,1,1,1.1,0v3.051h10.025v-3.051a.55.55,0,1,1,1.1,0v3.6A.55.55,0,0,1,628.417,509.36Z" transform="translate(-614.057 -493.493)" fill="#006681"/><path d="M624.323,509.472a.55.55,0,0,1-.55-.55v-3.228a.647.647,0,0,0-.646-.646H621.6a.647.647,0,0,0-.646.646v3.228a.55.55,0,1,1-1.1,0v-3.228a1.748,1.748,0,0,1,1.746-1.746h1.522a1.748,1.748,0,0,1,1.746,1.746v3.228A.55.55,0,0,1,624.323,509.472Z" transform="translate(-613.569 -493.604)" fill="#006681"/><path d="M620.17,501.889a.55.55,0,0,1-.162-1.076,8.385,8.385,0,0,1,4.79,0,.55.55,0,0,1-.323,1.052,7.286,7.286,0,0,0-4.143,0A.55.55,0,0,1,620.17,501.889Z" transform="translate(-613.606 -494.149)" fill="#006681"/><path d="M0,3.325a.55.55,0,0,1-.55-.55V0A.55.55,0,0,1,0-.55.55.55,0,0,1,.55,0V2.775A.55.55,0,0,1,0,3.325Z" transform="translate(8.797 8.119)" fill="#006681"/></g></svg>