<svg xmlns="http://www.w3.org/2000/svg" width="31.834" height="25.616" viewBox="0 0 31.834 25.616"><g transform="matrix(0.978, -0.208, 0.208, 0.978, -3.604, -0.26)"><path d="M30.505,8.768A2.024,2.024,0,0,0,28.487,6.75H4.268A2.024,2.024,0,0,0,2.25,8.768V11.8H30.505Z" transform="translate(0)" fill="#fff"/><path d="M2.25,25.841a2.024,2.024,0,0,0,2.018,2.018H28.487a2.024,2.024,0,0,0,2.018-2.018V15.75H2.25Zm8.956-3.027H21.549a.886.886,0,0,1,.883.883h0a.886.886,0,0,1-.883.883H11.206a.886.886,0,0,1-.883-.883h0A.886.886,0,0,1,11.206,22.814Zm-4.541,0h.757A.886.886,0,0,1,8.3,23.7h0a.886.886,0,0,1-.883.883H6.665a.886.886,0,0,1-.883-.883h0A.886.886,0,0,1,6.665,22.814Z" transform="translate(0 -0.927)" fill="#fff"/></g></svg>