<svg xmlns="http://www.w3.org/2000/svg" width="19.575" height="25" viewBox="0 0 19.575 25"><g transform="translate(-914.809 -259.223)"><path d="M934.139,264.635l-5.166-5.166a.839.839,0,0,0-.593-.246H915.648a.839.839,0,0,0-.839.839v23.322a.839.839,0,0,0,.839.839h17.9a.839.839,0,0,0,.839-.839V265.229A.844.844,0,0,0,934.139,264.635Zm-4.919-2.547,2.3,2.3h-2.3Zm-12.733,20.458V260.9h11.055v4.328a.839.839,0,0,0,.839.839h4.326v16.478Z" transform="translate(0 0)" fill="#db0000"/><g transform="translate(919.151 266.348)"><path d="M919.914,277.1a1.329,1.329,0,0,1-.2-.016,1.213,1.213,0,0,1-.926-.675l-.03-.076c-.073-.214-.6-2.1,3.1-3.565.11-.239.206-.463.287-.652l.185-.419a11.227,11.227,0,0,0,.533-1.391,4.7,4.7,0,0,1-.557-3.808,1.24,1.24,0,0,1,.975-.9,1.153,1.153,0,0,1,1.093.5c.508.679.724,2.094.3,3.942a7.223,7.223,0,0,0,.871,1.063c.142.15.29.294.44.432a8.891,8.891,0,0,1,1.519-.134,2.682,2.682,0,0,1,2.095.9,1.5,1.5,0,0,1,.091,1.45,1.391,1.391,0,0,1-1.064.857c-.933.173-2.144-.516-3.1-1.266a20.918,20.918,0,0,0-2.441.755A8.225,8.225,0,0,1,922,275.772C921.211,276.675,920.541,277.1,919.914,277.1Zm4.133-5.135-.018.044.046-.013Z" transform="translate(-918.691 -265.593)" fill="#db0000"/></g></g></svg>