<svg xmlns="http://www.w3.org/2000/svg" width="80.656" height="13.811" viewBox="0 0 80.656 13.811"><g transform="translate(-68.172 -250.595)"><path d="M106.636-60.577c-5.664,0-10.123,5.079-11.509,6.872,3.555,4.615,7.291,6.939,11.148,6.939,5.664,0,10.123-5.08,11.509-6.872C114.229-58.253,110.493-60.577,106.636-60.577Zm-.18,11.985a5.1,5.1,0,0,1-5.08-5.079,5.1,5.1,0,0,1,5.08-5.08,5,5,0,0,1,1.728.313,2.134,2.134,0,0,0-1.543,2.038,2.14,2.14,0,0,0,2.133,2.133,2.134,2.134,0,0,0,2.107-1.88,5.021,5.021,0,0,1,.654,2.476A5.1,5.1,0,0,1,106.456-48.592Z" transform="translate(2.044 311.172)" fill="#fff"/><path d="M23,.5H0v-1H23Z" transform="translate(125.828 257.5)" fill="#fff"/><path d="M23,.5H0v-1H23Z" transform="translate(68.172 257.5)" fill="#fff"/></g></svg>