<svg xmlns="http://www.w3.org/2000/svg" width="27.295" height="16.213" viewBox="0 0 27.295 16.213"><g transform="translate(0.75 0.75)"><path d="M409.957,444.306H394.144a.75.75,0,0,1-.75-.75v-3.061a.75.75,0,0,1,1.5,0v2.311h14.313V429.592H394.894V431.9a.75.75,0,0,1-1.5,0v-3.061a.75.75,0,0,1,.75-.75h15.813a.75.75,0,0,1,.75.75v14.713A.75.75,0,0,1,409.957,444.306Z" transform="translate(-384.162 -428.842)" fill="#006681"/><path d="M20.461.75H0A.75.75,0,0,1-.75,0,.75.75,0,0,1,0-.75H20.461a.75.75,0,0,1,.75.75A.75.75,0,0,1,20.461.75Z" transform="translate(0 7.357)" fill="#006681"/><path d="M391.086,441a.748.748,0,0,1-.53-.22l-4.662-4.662a.75.75,0,0,1,0-1.061l4.662-4.662a.75.75,0,0,1,1.061,1.061l-4.132,4.132,4.132,4.132a.75.75,0,0,1-.53,1.28Z" transform="translate(-386.424 -428.232)" fill="#006681"/></g></svg>