<svg xmlns="http://www.w3.org/2000/svg" width="12.603" height="13.604" viewBox="0 0 12.603 13.604"><g transform="translate(-126.454 -504.172)"><path d="M1.287-.5h9.028A1.79,1.79,0,0,1,12.1,1.288V9.743a1.79,1.79,0,0,1-1.788,1.788H1.287A1.79,1.79,0,0,1-.5,9.743V1.288A1.79,1.79,0,0,1,1.287-.5Zm9.028,11.031a.788.788,0,0,0,.788-.788V1.288A.788.788,0,0,0,10.316.5H1.287A.788.788,0,0,0,.5,1.288V9.743a.788.788,0,0,0,.788.788Z" transform="translate(126.954 506.245)"/><path d="M11.6.5H0A.5.5,0,0,1-.5,0,.5.5,0,0,1,0-.5H11.6a.5.5,0,0,1,.5.5A.5.5,0,0,1,11.6.5Z" transform="translate(126.954 509.39)"/><path d="M1.14.5H0A.5.5,0,0,1-.5,0,.5.5,0,0,1,0-.5H1.14a.5.5,0,0,1,.5.5A.5.5,0,0,1,1.14.5Z" transform="translate(129.02 511.94)"/><path d="M1.14.5H0A.5.5,0,0,1-.5,0,.5.5,0,0,1,0-.5H1.14a.5.5,0,0,1,.5.5A.5.5,0,0,1,1.14.5Z" transform="translate(132.186 511.94)"/><path d="M0,2.073a.5.5,0,0,1-.5-.5V0A.5.5,0,0,1,0-.5.5.5,0,0,1,.5,0V1.573A.5.5,0,0,1,0,2.073Z" transform="translate(132.756 504.672)"/><path d="M0,2.073a.5.5,0,0,1-.5-.5V0A.5.5,0,0,1,0-.5.5.5,0,0,1,.5,0V1.573A.5.5,0,0,1,0,2.073Z" transform="translate(136.238 504.672)"/><path d="M0,2.073a.5.5,0,0,1-.5-.5V0A.5.5,0,0,1,0-.5.5.5,0,0,1,.5,0V1.573A.5.5,0,0,1,0,2.073Z" transform="translate(129.265 504.672)"/><path d="M1.14.5H0A.5.5,0,0,1-.5,0,.5.5,0,0,1,0-.5H1.14a.5.5,0,0,1,.5.5A.5.5,0,0,1,1.14.5Z" transform="translate(135.344 511.94)"/><path d="M1.14.5H0A.5.5,0,0,1-.5,0,.5.5,0,0,1,0-.5H1.14a.5.5,0,0,1,.5.5A.5.5,0,0,1,1.14.5Z" transform="translate(129.02 514.264)"/><path d="M1.14.5H0A.5.5,0,0,1-.5,0,.5.5,0,0,1,0-.5H1.14a.5.5,0,0,1,.5.5A.5.5,0,0,1,1.14.5Z" transform="translate(132.186 514.264)"/><path d="M1.14.5H0A.5.5,0,0,1-.5,0,.5.5,0,0,1,0-.5H1.14a.5.5,0,0,1,.5.5A.5.5,0,0,1,1.14.5Z" transform="translate(135.344 514.264)"/></g></svg>