<svg xmlns="http://www.w3.org/2000/svg" width="9.208" height="13.166" viewBox="0 0 9.208 13.166"><path d="M12.029,2.925a4.468,4.468,0,0,1,4.6,4.307c0,3.123-4.08,8.211-4.254,8.426l-.35.433-.35-.433c-.174-.215-4.254-5.3-4.254-8.426A4.468,4.468,0,0,1,12.029,2.925Zm0,11.715c.985-1.3,3.7-5.1,3.7-7.409a3.569,3.569,0,0,0-3.7-3.407,3.569,3.569,0,0,0-3.7,3.407C8.325,9.542,11.044,13.341,12.029,14.64Zm0-8.914a1.8,1.8,0,1,1-1.8,1.8A1.8,1.8,0,0,1,12.029,5.726Zm0,2.706a.9.9,0,1,0-.9-.9A.9.9,0,0,0,12.029,8.432Z" transform="translate(-7.425 -2.925)" fill="#006681"/></svg>