<svg xmlns="http://www.w3.org/2000/svg" width="12.806" height="13.287" viewBox="0 0 12.806 13.287"><g transform="translate(0.75 0.75)"><path d="M5.893-7.061a.748.748,0,0,1-.53-.22L-.53-13.174a.75.75,0,0,1-.22-.53.75.75,0,0,1,.22-.53l5.893-5.893a.75.75,0,0,1,1.061,0,.75.75,0,0,1,0,1.061L1.061-13.7,6.424-8.342a.75.75,0,0,1,0,1.061A.748.748,0,0,1,5.893-7.061Z" transform="translate(0 19.598)" fill="#006681"/><g transform="translate(1.082 5.894)"><path d="M-6.776.75H-17A.75.75,0,0,1-17.75,0,.75.75,0,0,1-17-.75H-6.776a.75.75,0,0,1,.75.75A.75.75,0,0,1-6.776.75Z" transform="translate(17)" fill="#006681"/></g></g></svg>