<svg xmlns="http://www.w3.org/2000/svg" width="14" height="14" viewBox="0 0 14 14"><g transform="translate(-410 -895)"><path d="M18.165,7.625H15.387a.461.461,0,0,0-.46.46v.007a.461.461,0,0,0,.46.46h1.637l-6.472,6.472V13.387a.461.461,0,0,0-.46-.46h-.007a.461.461,0,0,0-.46.46v2.778a.461.461,0,0,0,.46.46h2.778a.461.461,0,0,0,.46-.46v-.007a.461.461,0,0,0-.46-.46H11.226L17.7,9.226v1.637a.461.461,0,0,0,.46.46h.007a.461.461,0,0,0,.46-.46V8.085A.459.459,0,0,0,18.165,7.625Z" transform="translate(402.875 889.875)" fill="#006681"/><path d="M1,1V13H13V1H1M0,0H14V14H0Z" transform="translate(410 895)" fill="#006681"/></g></svg>