<svg xmlns="http://www.w3.org/2000/svg" width="29.69" height="22.481" viewBox="0 0 29.69 22.481"><g transform="translate(0.6 0.6)"><g transform="translate(0 2.424)"><path d="M4.825,18.609a.6.6,0,0,1-.579-.445L-.58.155A.6.6,0,0,1-.155-.58.6.6,0,0,1,.58-.155L5.405,17.854a.6.6,0,0,1-.58.755Z" transform="translate(6.894 0.32)" fill="#006681"/><path d="M413.038,502.285a.6.6,0,0,1-.6-.631,9.92,9.92,0,0,1,18.226-4.884.6.6,0,0,1-.348.906l-17.124,4.588A.6.6,0,0,1,413.038,502.285Zm9.31-8.838a8.737,8.737,0,0,0-2.26.3,8.724,8.724,0,0,0-6.367,7.134l15.447-4.139a8.743,8.743,0,0,0-6.82-3.295Z" transform="translate(-413.038 -492.847)" fill="#006681"/><path d="M416.517,501.32a.6.6,0,0,1-.6-.555c-.316-4.208,1.195-7.5,3.76-8.184a3.855,3.855,0,0,1,1-.131c2.331,0,4.764,2.045,6.349,5.338a.6.6,0,0,1-.385.84l-9.968,2.672A.6.6,0,0,1,416.517,501.32Zm4.159-7.669a2.654,2.654,0,0,0-.687.09,3.669,3.669,0,0,0-2.243,2.248,9.753,9.753,0,0,0-.665,3.96l8.53-2.286C424.259,495.2,422.37,493.651,420.676,493.651Z" transform="translate(-412.939 -492.842)" fill="#006681"/></g><path d="M438.125,511.822a5.5,5.5,0,0,1-3.608-1.358,5.472,5.472,0,0,1-7.216,0,5.472,5.472,0,0,1-7.216,0,5.5,5.5,0,0,1-3.608,1.358.6.6,0,1,1,0-1.2,4.3,4.3,0,0,0,3.165-1.4.6.6,0,0,1,.886,0,4.278,4.278,0,0,0,6.331,0,.6.6,0,0,1,.443-.2h0a.6.6,0,0,1,.443.2,4.277,4.277,0,0,0,6.33,0,.6.6,0,0,1,.886,0,4.3,4.3,0,0,0,3.165,1.4.6.6,0,0,1,0,1.2Z" transform="translate(-412.939 -489.941)" fill="#006681"/><g transform="translate(18.2)"><path d="M3.078-.6A3.678,3.678,0,1,1-.6,3.078,3.682,3.682,0,0,1,3.078-.6Zm0,6.155A2.478,2.478,0,1,0,.6,3.078,2.48,2.48,0,0,0,3.078,5.555Z" transform="translate(1.184 2.95)" fill="#006681"/><path d="M0,1.734a.6.6,0,0,1-.6-.6V0A.6.6,0,0,1,0-.6.6.6,0,0,1,.6,0V1.134A.6.6,0,0,1,0,1.734Z" transform="translate(4.262)" fill="#006681"/><path d="M0,1.4a.6.6,0,0,1-.424-.176.6.6,0,0,1,0-.849l.8-.8a.6.6,0,0,1,.849,0,.6.6,0,0,1,0,.849l-.8.8A.6.6,0,0,1,0,1.4Z" transform="translate(7.722 1.765)" fill="#006681"/><path d="M1.134.6H0A.6.6,0,0,1-.6,0,.6.6,0,0,1,0-.6H1.134a.6.6,0,0,1,.6.6A.6.6,0,0,1,1.134.6Z" transform="translate(9.156 6.028)" fill="#006681"/><path d="M.8,1.4a.6.6,0,0,1-.424-.176l-.8-.8a.6.6,0,0,1,0-.849.6.6,0,0,1,.849,0l.8.8A.6.6,0,0,1,.8,1.4Z" transform="translate(7.722 9.488)" fill="#006681"/><path d="M0,1.734a.6.6,0,0,1-.6-.6V0A.6.6,0,0,1,0-.6.6.6,0,0,1,.6,0V1.134A.6.6,0,0,1,0,1.734Z" transform="translate(4.262 10.921)" fill="#006681"/><path d="M0,1.4a.6.6,0,0,1-.424-.176.6.6,0,0,1,0-.849l.8-.8a.6.6,0,0,1,.849,0,.6.6,0,0,1,0,.849l-.8.8A.6.6,0,0,1,0,1.4Z" transform="translate(0 9.488)" fill="#006681"/><path d="M.8,1.4a.6.6,0,0,1-.424-.176l-.8-.8a.6.6,0,0,1,0-.849.6.6,0,0,1,.849,0l.8.8A.6.6,0,0,1,.8,1.4Z" transform="translate(0 1.765)" fill="#006681"/></g></g></svg>