<svg xmlns="http://www.w3.org/2000/svg" width="23.696" height="20.763" viewBox="0 0 23.696 20.763"><g transform="translate(-219.39 -499.756)"><path d="M242.336,510.872a.747.747,0,0,1-.492-.184L231.293,501.5,220.63,510.69a.75.75,0,1,1-.979-1.136l11.155-9.616a.75.75,0,0,1,.982,0l11.041,9.616a.75.75,0,0,1-.493,1.316Z" fill="#006681"/><g transform="translate(223.397 507.364)"><path d="M0,13.155a.75.75,0,0,1-.75-.75V0A.75.75,0,0,1,0-.75.75.75,0,0,1,.75,0V12.405A.75.75,0,0,1,0,13.155Z" fill="#006681"/><path d="M0,13.155a.75.75,0,0,1-.75-.75V0A.75.75,0,0,1,0-.75.75.75,0,0,1,.75,0V12.405A.75.75,0,0,1,0,13.155Z" transform="translate(15.684)" fill="#006681"/></g><path d="M231.25,517.037a.75.75,0,0,1-.75-.75v-4.082a1.633,1.633,0,1,0-3.266,0v4.082a.75.75,0,0,1-1.5,0v-4.082a3.133,3.133,0,1,1,6.266,0v4.082A.75.75,0,0,1,231.25,517.037Z" transform="translate(2.371 3.482)" fill="#006681"/></g></svg>