<svg xmlns="http://www.w3.org/2000/svg" xmlns:xlink="http://www.w3.org/1999/xlink" width="13" height="13" viewBox="0 0 13 13"><defs><clipPath id="a"><rect width="13" height="13"/></clipPath><clipPath id="b"><circle cx="6.5" cy="6.5" r="6.5" fill="#fff" stroke="#707070" stroke-width="1"/></clipPath><clipPath id="c"><path d="M13,6.5H26V13H0V0H26Z" fill="none"/></clipPath></defs><g clip-path="url(#a)"><rect width="13" height="13" fill="#fff"/><g clip-path="url(#b)"><g transform="translate(-6.5)"><path d="M0,0V13H26V0Z" fill="#012169"/><path d="M26,0H23.093L13,5.046,2.907,0H0V1.454L10.093,6.5,0,11.546V13H2.907L13,7.954,23.093,13H26V11.547L15.907,6.5,26,1.454Z" fill="#fff"/><rect width="26" height="13" fill="none"/><g clip-path="url(#c)"><g transform="translate(-0.388 -0.775)"><path d="M0,0,26,13M26,0,0,13" transform="translate(0.388 0.775)"/><path d="M8.11-21.227-4.5-27.533l-12.613,6.306-.775-1.55L-6.44-28.5l-11.45-5.725.775-1.55L-4.5-29.471,8.11-35.777l.775,1.55L-2.564-28.5,8.885-22.777Z" transform="translate(17.89 35.777)" fill="#c8102e"/></g></g><path d="M13,0V13M0,6.5H26"/><path d="M15.167,13H10.833V8.666H0V4.333H10.833V0h4.333V4.333H26V8.666H15.167Z" fill="#fff"/><path d="M13,0V13M0,6.5H26"/><path d="M14.3,13H11.7V7.8H0V5.2H11.7V0h2.6V5.2H26V7.8H14.3Z" fill="#c8102e"/></g></g></g></svg>