<svg xmlns="http://www.w3.org/2000/svg" width="27.373" height="27.365" viewBox="0 0 27.373 27.365"><path d="M891.7,481.338H880.409L867.5,494.71a3.027,3.027,0,0,0-.012,4.28l.012.011,8.819,8.811a3.274,3.274,0,0,0,2.053.891,3.574,3.574,0,0,0,2.239-.891l13.37-12.789v-11.4Zm-7.943,19.083-3.6-1.558-3.6,1.558.371-3.9-2.595-2.941,3.828-.854,2-3.376,2,3.376,3.828.854-2.595,2.941Zm7.274-13.284a2.217,2.217,0,0,1-1.52,1.52,2.282,2.282,0,1,1,1.52-1.52Z" transform="translate(-866.609 -481.338)" fill="#fff"/></svg>