<svg xmlns="http://www.w3.org/2000/svg" width="12.55" height="14.581" viewBox="0 0 12.55 14.581"><g transform="translate(-1740.4 430.6)"><g transform="translate(1741 -430)"><path d="M3.161-.6A3.761,3.761,0,1,1-.6,3.161,3.766,3.766,0,0,1,3.161-.6Zm0,6.323A2.561,2.561,0,1,0,.6,3.161,2.564,2.564,0,0,0,3.161,5.723Z" transform="translate(2.514 0)" fill="#5d7e8b"/><path d="M88.039,509.95a10.773,10.773,0,0,1-6.009-1.822.6.6,0,0,1-.265-.535,6.286,6.286,0,0,1,12.548,0,.6.6,0,0,1-.265.535A10.769,10.769,0,0,1,88.039,509.95ZM83,507.322a9.623,9.623,0,0,0,10.087,0,5.086,5.086,0,0,0-10.087,0Z" transform="translate(-82.364 -495.968)" fill="#5d7e8b"/></g></g></svg>