<svg xmlns="http://www.w3.org/2000/svg" width="29" height="29" viewBox="0 0 29 29"><g transform="translate(-243 -88)"><path d="M14.5,1.2A13.3,13.3,0,0,0,5.1,23.9,13.3,13.3,0,0,0,23.9,5.1a13.213,13.213,0,0,0-9.4-3.9m0-1.2A14.5,14.5,0,1,1,0,14.5,14.5,14.5,0,0,1,14.5,0Z" transform="translate(243 88)" fill="#006681"/><g transform="translate(-464.256 -326.983)"><path d="M2.146-.6H15.292a2.749,2.749,0,0,1,2.746,2.746v8.119a2.749,2.749,0,0,1-2.746,2.746H2.146A2.749,2.749,0,0,1-.6,10.264V2.146A2.749,2.749,0,0,1,2.146-.6ZM15.292,11.81a1.547,1.547,0,0,0,1.546-1.546V2.146A1.547,1.547,0,0,0,15.292.6H2.146A1.547,1.547,0,0,0,.6,2.146v8.119A1.547,1.547,0,0,0,2.146,11.81Z" transform="translate(713.038 423.278)" fill="#006681"/><g transform="translate(715.837 426.019)"><path d="M1.8.6H0A.6.6,0,0,1-.6,0,.6.6,0,0,1,0-.6H1.8a.6.6,0,0,1,.6.6A.6.6,0,0,1,1.8.6Z" fill="#006681"/><path d="M1.272.6H0A.6.6,0,0,1-.6,0,.6.6,0,0,1,0-.6H1.272a.6.6,0,0,1,.6.6A.6.6,0,0,1,1.272.6Z" transform="translate(0 3.464)" fill="#006681"/><path d="M1.272.6H0A.6.6,0,0,1-.6,0,.6.6,0,0,1,0-.6H1.272a.6.6,0,0,1,.6.6A.6.6,0,0,1,1.272.6Z" transform="translate(3.483 3.464)" fill="#006681"/><path d="M.448.6H0A.6.6,0,0,1-.6,0,.6.6,0,0,1,0-.6H.448a.6.6,0,0,1,.6.6A.6.6,0,0,1,.448.6Z" transform="translate(0 6.928)" fill="#006681"/><path d="M1.272.6H0A.6.6,0,0,1-.6,0,.6.6,0,0,1,0-.6H1.272a.6.6,0,0,1,.6.6A.6.6,0,0,1,1.272.6Z" transform="translate(2.756 6.928)" fill="#006681"/><path d="M5.509.6H0A.6.6,0,0,1-.6,0,.6.6,0,0,1,0-.6H5.509a.6.6,0,0,1,.6.6A.6.6,0,0,1,5.509.6Z" transform="translate(6.33 6.928)" fill="#006681"/><path d="M1.272.6H0A.6.6,0,0,1-.6,0,.6.6,0,0,1,0-.6H1.272a.6.6,0,0,1,.6.6A.6.6,0,0,1,1.272.6Z" transform="translate(6.967 3.464)" fill="#006681"/><path d="M1.272.6H0A.6.6,0,0,1-.6,0,.6.6,0,0,1,0-.6H1.272a.6.6,0,0,1,.6.6A.6.6,0,0,1,1.272.6Z" transform="translate(10.45 3.464)" fill="#006681"/><path d="M1.8.6H0A.6.6,0,0,1-.6,0,.6.6,0,0,1,0-.6H1.8a.6.6,0,0,1,.6.6A.6.6,0,0,1,1.8.6Z" transform="translate(9.924)" fill="#006681"/><path d="M1.8.6H0A.6.6,0,0,1-.6,0,.6.6,0,0,1,0-.6H1.8a.6.6,0,0,1,.6.6A.6.6,0,0,1,1.8.6Z" transform="translate(0 1.445)" fill="#006681"/></g></g></g></svg>