<svg xmlns="http://www.w3.org/2000/svg" width="12.701" height="12.701" viewBox="0 0 12.701 12.701"><g transform="translate(-4 -4)"><path d="M5.8,4h9.1a1.8,1.8,0,0,1,1.8,1.8v9.1a1.8,1.8,0,0,1-1.8,1.8H5.8A1.8,1.8,0,0,1,4,14.9V5.8A1.8,1.8,0,0,1,5.8,4Zm9.1,11.7a.8.8,0,0,0,.8-.8V5.8a.8.8,0,0,0-.8-.8H5.8a.8.8,0,0,0-.8.8v9.1a.8.8,0,0,0,.8.8Z" fill="#fff"/><path d="M11.475,10A1.475,1.475,0,1,1,10,11.475,1.477,1.477,0,0,1,11.475,10Zm0,1.95A.475.475,0,1,0,11,11.475.476.476,0,0,0,11.475,11.95Z" transform="translate(-3.4 -3.4)" fill="#fff"/><path d="M7.5,22.651a.5.5,0,0,1-.354-.854L14.3,14.646a.5.5,0,0,1,.707,0l3.25,3.25a.5.5,0,0,1-.707.707l-2.9-2.9-6.8,6.8A.5.5,0,0,1,7.5,22.651Z" transform="translate(-1.7 -5.95)" fill="#fff"/></g></svg>