<svg xmlns="http://www.w3.org/2000/svg" width="181.759" height="36.029" viewBox="0 0 181.759 36.029"><g transform="translate(-414.214 -397.149)"><g transform="translate(414.214 397.149)"><g transform="translate(50.565 7.424)"><path d="M2435.586,702.864h3.349a.567.567,0,0,1,.631.631v20.847a.567.567,0,0,1-.631.631h-3.349a.567.567,0,0,1-.631-.631v-8.37h-2.148v8.37a.567.567,0,0,1-.631.631h-3.347a.566.566,0,0,1-.631-.631V703.5a.567.567,0,0,1,.631-.631h3.348a.567.567,0,0,1,.632.631v8.213h2.147V703.5A.566.566,0,0,1,2435.586,702.864Z" transform="translate(-2428.197 -702.612)" fill="#26dbaa"/><path d="M2957.723,950.477v-5.623a5.4,5.4,0,1,1,10.8,0v5.623a5.4,5.4,0,1,1-10.8,0Zm6.411.284V944.57a1.013,1.013,0,1,0-2.021,0v6.191a1.013,1.013,0,1,0,2.021,0Zm19.711-.284v-5.623a5.4,5.4,0,1,1,10.8,0v5.623a5.4,5.4,0,1,1-10.8,0Zm6.413.284V944.57a1.013,1.013,0,1,0-2.021,0v6.191a1.013,1.013,0,1,0,2.021,0Z" transform="translate(-2944.428 -933.2)" fill="#26dbaa"/><path d="M3470.926,724.342V703.5a.567.567,0,0,1,.631-.631h3.1a.567.567,0,0,1,.631.631v20.847a.567.567,0,0,1-.631.631h-3.1A.566.566,0,0,1,3470.926,724.342Z" transform="translate(-3444.746 -702.612)" fill="#26dbaa"/><path d="M3737.6,695.215a2.289,2.289,0,0,1,2.368-2.368,2.326,2.326,0,0,1,2.368,2.285v.085a2.384,2.384,0,0,1-2.368,2.368,2.306,2.306,0,0,1-2.368-2.245Zm.19,19.361v-14.53a.567.567,0,0,1,.631-.631h3.1a.567.567,0,0,1,.631.631v14.53a.567.567,0,0,1-.631.631h-3.1a.566.566,0,0,1-.631-.631Z" transform="translate(-3704.725 -692.846)" fill="#26dbaa"/><path d="M4515.114,935.466c0-2.874,2.147-4.864,5.274-4.864h1.074V929.5c0-.663-.315-1.074-.915-1.074a.82.82,0,0,0-.916.884c-.031.378-.222.443-.632.443h-3.065a.532.532,0,0,1-.6-.631,5.009,5.009,0,0,1,5.274-4.8c3.127,0,5.211,2.18,5.211,5.464v5.907c0,3.127-1.862,5.18-5.148,5.18A5.183,5.183,0,0,1,4515.114,935.466Zm6.348.251v-1.359h-.79a1.032,1.032,0,0,0-1.168,1.106c0,.79.41,1.263,1.106,1.263C4521.178,936.728,4521.462,936.35,4521.462,935.717Z" transform="translate(-4462.717 -918.504)" fill="#26dbaa"/><path d="M5015.382,937.035v16.392c0,3.443-1.958,5.464-5.307,5.464-3.127,0-5.054-1.959-5.274-5.307a.543.543,0,0,1,.6-.663h3.127c.378,0,.568.222.663.631.094.821.409,1.231.884,1.231.6,0,.947-.41.947-1.074v-2.621a2.585,2.585,0,0,1-1.547.474c-2.653,0-4.707-2.18-4.707-5.464v-9.066a.567.567,0,0,1,.631-.631h3.1a.566.566,0,0,1,.631.631v9.35c0,.663.347,1.074.947,1.074s.947-.41.947-1.074v-9.35a.567.567,0,0,1,.631-.631h3.1A.569.569,0,0,1,5015.382,937.035Z" transform="translate(-4940.078 -930.287)" fill="#26dbaa"/><path d="M4266.5,739.485V718.638a.567.567,0,0,1,.631-.631h3.1a.567.567,0,0,1,.631.631v20.847a.567.567,0,0,1-.631.631h-3.1A.567.567,0,0,1,4266.5,739.485Z" transform="translate(-4220.346 -717.375)" fill="#26dbaa"/></g><path d="M428.791,427.724H415.4a1.176,1.176,0,1,0-.028,2.351h34.276v-12.2a.769.769,0,0,0-.673.391l-4.773,8.364a.778.778,0,0,1-.673.391H440.2a.91.91,0,0,1-.78-.509h-.007l-1.573-2.829a.768.768,0,0,1,.194-.975l.347-.277a.776.776,0,0,1,1.09.122.758.758,0,0,1,.072.106h0a.776.776,0,0,0,1.35.007l7.393-12.951a.771.771,0,0,0,0-.762l-1.929-2.785a.77.77,0,0,1,.18-.977l.345-.284a.777.777,0,0,1,1.092.106.721.721,0,0,1,.073.106l.926,1.622a.769.769,0,0,0,.673.391v-9.983a22.362,22.362,0,0,0-20.857,30.575Z" transform="translate(-414.214 -397.149)" fill="#26dbaa"/></g><g transform="translate(449.652 404.726)"><g transform="translate(92.629 5.801)"><path d="M5514.983,941.1v-5.623a5.1,5.1,0,0,1,5.307-5.464c3.033,0,5.086,1.927,5.338,5.117a.543.543,0,0,1-.6.663h-3.19c-.378,0-.569-.221-.631-.631-.125-.79-.443-1.043-.916-1.043-.568,0-.915.41-.915,1.074v6.191c0,.663.347,1.074.947,1.074.505,0,.853-.284.98-1.137.063-.41.253-.631.631-.631h3.19c.412,0,.631.253.6.726-.253,3.221-2.337,5.148-5.338,5.148A5.14,5.14,0,0,1,5514.983,941.1Z" transform="translate(-5514.983 -930.012)" fill="#006681"/><path d="M5982.965,941.232c0-2.874,2.148-4.864,5.275-4.864h1.075v-1.106c0-.663-.316-1.074-.916-1.074a.821.821,0,0,0-.916.884c-.031.378-.222.443-.631.443h-3.064a.533.533,0,0,1-.6-.631,5.009,5.009,0,0,1,5.274-4.8c3.127,0,5.211,2.18,5.211,5.464v5.907c0,3.127-1.863,5.18-5.148,5.18A5.183,5.183,0,0,1,5982.965,941.232Zm6.349.251v-1.359h-.79a1.032,1.032,0,0,0-1.169,1.106c0,.79.412,1.263,1.105,1.263.569,0,.852-.377.854-1.01Z" transform="translate(-5971.215 -930.08)" fill="#006681"/><path d="M6503.768,935.531v10.075a.567.567,0,0,1-.631.631H6500.1a.567.567,0,0,1-.631-.631v-10.36c0-.663-.316-1.074-.885-1.074s-.884.41-.884,1.074v10.36a.567.567,0,0,1-.632.631h-3.033a.567.567,0,0,1-.631-.631v-10.36c0-.663-.315-1.074-.884-1.074s-.884.41-.884,1.074v10.36a.567.567,0,0,1-.631.631h-3.033a.567.567,0,0,1-.631-.631V935.531c0-3.286,2.084-5.464,5.18-5.464a4.932,4.932,0,0,0,6.066,0C6501.686,930.067,6503.768,932.245,6503.768,935.531Z" transform="translate(-6462.931 -930.065)" fill="#006681"/><path d="M7234.121,935.546v5.623c0,3.286-2.149,5.464-4.643,5.464a3.932,3.932,0,0,1-1.768-.41v5.715a.567.567,0,0,1-.632.631h-3.127a.566.566,0,0,1-.631-.631V935.546a5.4,5.4,0,1,1,10.8,0Zm-4.39-.284a1.013,1.013,0,1,0-2.021,0v6.191a1.013,1.013,0,1,0,2.021,0Z" transform="translate(-7180.428 -930.08)" fill="#006681"/></g><path d="M1826.336,712.488l4.773,8.365a.778.778,0,0,0,.673.391h3.329a.907.907,0,0,0,.78-.5h.007l1.573-2.829a.768.768,0,0,0-.194-.975l-.347-.277a.776.776,0,0,0-1.09.122.763.763,0,0,0-.071.106h0a.776.776,0,0,1-1.35.007l-7.393-12.951a.771.771,0,0,1,0-.762l1.929-2.792a.768.768,0,0,0-.181-.977l-.347-.284a.775.775,0,0,0-1.092.106.733.733,0,0,0-.073.106l-.926,1.622a.769.769,0,0,1-.673.391V712.1A.767.767,0,0,1,1826.336,712.488Z" transform="translate(-1825.663 -698.95)" fill="#006681"/></g></g></svg>