<svg xmlns="http://www.w3.org/2000/svg" width="147.186" height="29.176" viewBox="0 0 147.186 29.176"><g transform="translate(-414.214 -397.149)"><g transform="translate(414.214 397.149)"><g transform="translate(40.947 6.012)"><path d="M2434.181,702.864h2.712a.459.459,0,0,1,.511.511v16.881a.459.459,0,0,1-.511.511h-2.712a.46.46,0,0,1-.511-.511v-6.778h-1.74v6.778a.459.459,0,0,1-.511.511h-2.71a.459.459,0,0,1-.511-.511V703.375a.459.459,0,0,1,.511-.511h2.711a.459.459,0,0,1,.511.511v6.651h1.738v-6.651A.458.458,0,0,1,2434.181,702.864Z" transform="translate(-2428.197 -702.66)" fill="#fff"/><path d="M2957.723,948.368v-4.553a4.374,4.374,0,1,1,8.748,0v4.553a4.374,4.374,0,1,1-8.748,0Zm5.192.23v-5.014a.82.82,0,1,0-1.637,0V948.6a.82.82,0,1,0,1.637,0Zm15.962-.23v-4.553a4.374,4.374,0,1,1,8.748,0v4.553a4.374,4.374,0,1,1-8.748,0Zm5.193.23v-5.014a.82.82,0,1,0-1.637,0V948.6a.82.82,0,1,0,1.637,0Z" transform="translate(-2946.957 -934.377)" fill="#fff"/><path d="M3470.926,720.257V703.375a.459.459,0,0,1,.511-.511h2.507a.459.459,0,0,1,.511.511v16.881a.459.459,0,0,1-.511.511h-2.507A.459.459,0,0,1,3470.926,720.257Z" transform="translate(-3449.726 -702.66)" fill="#fff"/><path d="M3737.6,694.765a1.854,1.854,0,0,1,1.918-1.918,1.884,1.884,0,0,1,1.918,1.85v.069a1.931,1.931,0,0,1-1.918,1.918,1.867,1.867,0,0,1-1.918-1.818Zm.154,15.678V698.677a.459.459,0,0,1,.511-.511h2.507a.459.459,0,0,1,.511.511v11.766a.459.459,0,0,1-.511.511h-2.507a.459.459,0,0,1-.511-.511Z" transform="translate(-3710.978 -692.846)" fill="#fff"/><path d="M4515.114,933.345c0-2.327,1.739-3.939,4.271-3.939h.87v-.9c0-.537-.255-.87-.741-.87a.664.664,0,0,0-.742.716c-.025.306-.18.359-.512.359h-2.482a.431.431,0,0,1-.486-.511,4.255,4.255,0,0,1,8.491.537v4.784a3.863,3.863,0,0,1-4.169,4.195A4.2,4.2,0,0,1,4515.114,933.345Zm5.141.2v-1.1h-.64a.836.836,0,0,0-.946.9c0,.64.333,1.023.9,1.023C4520.024,934.367,4520.254,934.061,4520.254,933.548Z" transform="translate(-4472.684 -919.61)" fill="#fff"/><path d="M5013.363,936.915v13.274c0,2.788-1.586,4.425-4.3,4.425-2.532,0-4.093-1.586-4.271-4.3a.44.44,0,0,1,.486-.537h2.532c.307,0,.46.179.537.511.076.665.331,1,.715,1,.486,0,.767-.332.767-.87v-2.123a2.092,2.092,0,0,1-1.253.384c-2.148,0-3.812-1.765-3.812-4.425v-7.341a.459.459,0,0,1,.511-.511h2.508a.458.458,0,0,1,.511.511v7.571c0,.537.281.87.767.87s.767-.332.767-.87v-7.571a.459.459,0,0,1,.511-.511h2.507A.461.461,0,0,1,5013.363,936.915Z" transform="translate(-4952.383 -931.45)" fill="#fff"/><path d="M4266.5,735.4V718.518a.459.459,0,0,1,.511-.511h2.507a.459.459,0,0,1,.511.511V735.4a.459.459,0,0,1-.511.511h-2.507A.459.459,0,0,1,4266.5,735.4Z" transform="translate(-4229.125 -717.495)" fill="#fff"/></g><path d="M426.018,421.908H415.177a.952.952,0,0,0-.023,1.9h27.756v-9.879a.623.623,0,0,0-.545.316l-3.866,6.773a.63.63,0,0,1-.545.316h-2.7a.737.737,0,0,1-.631-.412h-.006l-1.274-2.291a.622.622,0,0,1,.157-.79l.281-.225a.628.628,0,0,1,.883.1.616.616,0,0,1,.058.086h0a.628.628,0,0,0,1.093.006l5.987-10.488a.625.625,0,0,0,0-.617l-1.562-2.255a.623.623,0,0,1,.145-.791l.28-.23a.629.629,0,0,1,.884.086.582.582,0,0,1,.059.086l.75,1.313a.623.623,0,0,0,.545.316v-8.084a18.109,18.109,0,0,0-16.89,24.759Z" transform="translate(-414.214 -397.149)" fill="#fff"/></g><g transform="translate(442.911 403.285)"><g transform="translate(75.009 4.698)"><path d="M5514.983,938.99v-4.553a4.313,4.313,0,0,1,8.621-.281.44.44,0,0,1-.486.537h-2.583c-.307,0-.461-.179-.511-.511-.1-.64-.359-.845-.742-.845-.46,0-.741.332-.741.87v5.014c0,.537.281.87.767.87.409,0,.691-.23.794-.921.051-.332.2-.511.511-.511h2.583c.333,0,.511.2.486.588a4.351,4.351,0,0,1-8.7-.256Z" transform="translate(-5514.983 -930.012)" fill="#fff"/><path d="M5982.965,939.111c0-2.327,1.74-3.939,4.272-3.939h.87v-.9c0-.537-.256-.87-.741-.87a.665.665,0,0,0-.742.716c-.025.307-.179.359-.511.359h-2.481a.431.431,0,0,1-.486-.511,4.255,4.255,0,0,1,8.491.537v4.784a3.863,3.863,0,0,1-4.169,4.195A4.2,4.2,0,0,1,5982.965,939.111Zm5.141.2v-1.1h-.64a.836.836,0,0,0-.946.9c0,.64.333,1.023.9,1.023.46,0,.689-.305.691-.818Z" transform="translate(-5973.45 -930.081)" fill="#fff"/><path d="M6500.644,934.492v8.159a.459.459,0,0,1-.511.511h-2.457a.459.459,0,0,1-.511-.511v-8.389c0-.537-.256-.87-.716-.87s-.716.332-.716.87v8.389a.46.46,0,0,1-.512.511h-2.456a.46.46,0,0,1-.512-.511v-8.389c0-.537-.255-.87-.716-.87s-.716.332-.716.87v8.389a.459.459,0,0,1-.511.511h-2.456a.459.459,0,0,1-.511-.511v-8.159a4.078,4.078,0,0,1,4.194-4.425,3.994,3.994,0,0,0,4.912,0A4.077,4.077,0,0,1,6500.644,934.492Z" transform="translate(-6467.574 -930.066)" fill="#fff"/><path d="M7232.066,934.507v4.553c0,2.661-1.74,4.425-3.76,4.425a3.184,3.184,0,0,1-1.432-.332v4.628a.459.459,0,0,1-.512.511h-2.532a.459.459,0,0,1-.512-.511V934.507a4.374,4.374,0,1,1,8.747,0Zm-3.555-.23a.82.82,0,1,0-1.637,0v5.014a.82.82,0,1,0,1.637,0Z" transform="translate(-7188.586 -930.081)" fill="#fff"/></g><path d="M1826.208,709.913l3.865,6.773a.63.63,0,0,0,.545.316h2.7a.734.734,0,0,0,.631-.408h.006l1.274-2.291a.622.622,0,0,0-.157-.79l-.281-.224a.628.628,0,0,0-.941.185h0a.628.628,0,0,1-1.093.006l-5.987-10.488a.624.624,0,0,1,0-.617l1.562-2.261a.622.622,0,0,0-.147-.791l-.281-.23a.628.628,0,0,0-.884.086.588.588,0,0,0-.059.086l-.75,1.313a.623.623,0,0,1-.545.316v8.7A.621.621,0,0,1,1826.208,709.913Z" transform="translate(-1825.663 -698.95)" fill="#fff"/></g></g></svg>