<svg xmlns="http://www.w3.org/2000/svg" width="47.344" height="32.926" viewBox="0 0 47.344 32.926"><g transform="translate(-414.214 -397.149)"><g transform="translate(414.214 397.149)"><path d="M428.791,427.724H415.4a1.176,1.176,0,1,0-.028,2.351h34.276v-12.2a.769.769,0,0,0-.673.391l-4.773,8.364a.778.778,0,0,1-.673.391H440.2a.91.91,0,0,1-.78-.509h-.007l-1.573-2.829a.768.768,0,0,1,.194-.975l.347-.277a.776.776,0,0,1,1.09.122.758.758,0,0,1,.072.106h0a.776.776,0,0,0,1.35.007l7.393-12.951a.771.771,0,0,0,0-.762l-1.929-2.785a.77.77,0,0,1,.18-.977l.345-.284a.777.777,0,0,1,1.092.106.721.721,0,0,1,.073.106l.926,1.622a.769.769,0,0,0,.673.391v-9.983a22.362,22.362,0,0,0-20.857,30.575Z" transform="translate(-414.214 -397.149)" fill="#26dbaa"/></g><g transform="translate(449.652 404.726)"><path d="M1826.336,712.488l4.773,8.365a.778.778,0,0,0,.673.391h3.329a.907.907,0,0,0,.78-.5h.007l1.573-2.829a.768.768,0,0,0-.194-.975l-.347-.277a.776.776,0,0,0-1.09.122.763.763,0,0,0-.071.106h0a.776.776,0,0,1-1.35.007l-7.393-12.951a.771.771,0,0,1,0-.762l1.929-2.792a.768.768,0,0,0-.181-.977l-.347-.284a.775.775,0,0,0-1.092.106.733.733,0,0,0-.073.106l-.926,1.622a.769.769,0,0,1-.673.391V712.1A.767.767,0,0,1,1826.336,712.488Z" transform="translate(-1825.663 -698.95)" fill="#006681"/></g></g></svg>